<?xml version="1.0" encoding="UTF-8"?>
<svg width="15px" height="19px" viewBox="0 0 15 19" version="1.1" xmlns="http://www.w3.org/2000/svg" xmlns:xlink="http://www.w3.org/1999/xlink">
    <title>隐私保护</title>
    <g id="Bison管理系统设计规范" stroke="none" stroke-width="1" fill="none" fill-rule="evenodd">
        <g id="登录界面（新版）" transform="translate(-1233.000000, -530.000000)" fill="#3F75FC" fill-rule="nonzero">
            <g id="隐私保护" transform="translate(1233.000000, 530.007102)">
                <path d="M7.56500001,0 C9.95409092,0 11.8818182,2.00454545 11.9463636,4.485 L11.9481818,4.61363638 L11.9477273,5.90909092 L15,5.90909092 L15,18.6363636 L0,18.6363636 L0,5.90909092 L3.18136364,5.90909092 L3.18181817,4.61363638 C3.18181817,2.07454547 5.13454545,0 7.56500001,0 Z M13.6363636,7.27272729 L1.36363636,7.27272729 L1.36363636,17.2727273 L13.6363636,17.2727273 L13.6363636,7.27272729 Z M10,9.54545455 L10,14.5454545 L5.00000001,14.5454545 L5.00000001,9.54545455 L10,9.54545455 L10,9.54545455 Z M8.63636363,10.9090909 L6.36363637,10.9090909 L6.36363637,13.1818182 L8.63636363,13.1818182 L8.63636363,10.9090909 Z M7.56500001,1.36363636 C5.94136364,1.36363636 4.60227273,2.75000001 4.54681817,4.50136364 L4.54545454,4.61363638 L4.545,5.90909092 L10.5840909,5.90909092 L10.5840909,4.61363638 C10.5840909,2.81000001 9.22318183,1.36363636 7.56500001,1.36363636 Z" id="形状"></path>
            </g>
        </g>
    </g>
</svg>