<?xml version="1.0" encoding="UTF-8"?>
<svg width="16px" height="16px" viewBox="0 0 16 16" version="1.1" xmlns="http://www.w3.org/2000/svg" xmlns:xlink="http://www.w3.org/1999/xlink">
    <title>用户</title>
    <g id="Bison管理系统设计规范" stroke="none" stroke-width="1" fill="none" fill-rule="evenodd">
        <g id="登录界面（新版）" transform="translate(-1233.000000, -470.000000)" fill="#4176FD" fill-rule="nonzero">
            <g id="用户" transform="translate(1233.015818, 470.016424)">
                <path d="M7.92969698,0.000485124234 C9.96339234,1.41622255e-07 11.7617496,1.32040585 12.3702783,3.26092381 C12.9788069,5.20144178 12.2564756,7.31232691 10.5866667,8.4732124 C13.6130909,9.54860633 15.7929697,12.4116366 15.8569697,15.7920003 L15.8589091,15.9461821 L14.4043636,15.9461821 C14.4043636,12.3704245 11.5049697,9.47151544 7.92969698,9.47151542 C4.4038788,9.47151542 1.53648486,12.28897 1.45648484,15.7953942 L1.45454545,15.9456972 L0,15.9456972 C0,12.4984245 2.20024243,9.56509117 5.27272727,8.47272756 C3.60291831,7.31184206 2.880587,5.20095693 3.48911567,3.26043896 C4.09764434,1.319921 5.89600161,-0.000499278535 7.92969698,1.41622255e-07 L7.92969698,0.000485124234 Z M7.92969698,1.45503058 C6.16332299,1.45503058 4.73139394,2.88695962 4.73139394,4.65333361 C4.73139394,6.4197076 6.16332299,7.85163665 7.92969698,7.85163665 C9.69607094,7.85163665 11.1279999,6.41970757 11.1279999,4.65333361 C11.1279999,2.88695965 9.69607094,1.45503058 7.92969698,1.45503058 L7.92969698,1.45503058 Z" id="形状"></path>
            </g>
        </g>
    </g>
</svg>