<?xml version="1.0" encoding="UTF-8"?>
<svg width="16px" height="19px" viewBox="0 0 16 19" version="1.1" xmlns="http://www.w3.org/2000/svg" xmlns:xlink="http://www.w3.org/1999/xlink">
    <title>安全隐私</title>
    <g id="Bison管理系统设计规范" stroke="none" stroke-width="1" fill="none" fill-rule="evenodd">
        <g id="登录界面（新版）" transform="translate(-1233.000000, -591.000000)" fill="#4076FD" fill-rule="nonzero">
            <g id="安全隐私" transform="translate(1233.013889, 591.005278)">
                <path d="M7.77777777,0.000444458333 L15.5555555,3.67466667 L15.5555555,9.9808889 C15.5555555,13.3568889 12.784,16.9022222 8.37466667,18.1573333 L8.19022221,18.2084445 L7.77777777,18.3151111 L7.36044444,18.2071111 C2.98666667,17.0373333 0.168,13.6008889 0.00666666667,10.2453333 L0.00133333333,10.1017778 L0,3.67511112 L7.77777777,0 L7.77777777,0.000444458333 Z M7.77733333,1.47511113 L1.33288887,4.51911113 L1.33466667,10.0844445 C1.4031111,12.7844445 3.68444444,15.696 7.34177777,16.8151111 L7.51955554,16.868 L7.7,16.9177778 L7.77688887,16.9377778 L7.85066667,16.9191111 C11.6653333,15.8986667 14.0711111,12.9786667 14.2151111,10.2408889 L14.2204444,10.1106667 L14.2222222,9.9808889 L14.2222222,4.51911113 L7.77733333,1.47511113 Z M9.95866667,6.41555556 L10.9013333,7.35822223 L6.65866667,11.6008889 L3.67333333,8.61555556 L4.616,7.6728889 L6.65822221,9.71555556 L9.95866667,6.41555556 Z" id="形状"></path>
            </g>
        </g>
    </g>
</svg>