<?xml version="1.0" standalone="no"?><!DOCTYPE svg PUBLIC "-//W3C//DTD SVG 1.1//EN" "http://www.w3.org/Graphics/SVG/1.1/DTD/svg11.dtd"><svg t="1652594220394" class="icon" viewBox="0 0 1024 1024" version="1.1" xmlns="http://www.w3.org/2000/svg" p-id="3499" xmlns:xlink="http://www.w3.org/1999/xlink" width="200" height="200"><defs><style type="text/css">@font-face { font-family: feedback-iconfont; src: url("//at.alicdn.com/t/font_1031158_u69w8yhxdu.woff2?t=1630033759944") format("woff2"), url("//at.alicdn.com/t/font_1031158_u69w8yhxdu.woff?t=1630033759944") format("woff"), url("//at.alicdn.com/t/font_1031158_u69w8yhxdu.ttf?t=1630033759944") format("truetype"); }
</style></defs><path d="M538.112 672.182857L422.985143 543.305143l1.316571-1.609143a936.594286 936.594286 0 0 0 168.228572-335.286857h132.827428V103.424h-317.44V0.731429H317.44v102.692571H0v102.253714h506.368a839.972571 839.972571 0 0 1-143.725714 275.236572 820.955429 820.955429 0 0 1-104.667429-172.032h-90.697143a921.6 921.6 0 0 0 135.021715 234.057143l-230.4 258.194285 64.146285 72.630857 226.596572-256.731428 141.019428 159.670857 34.450286-104.594286z m276.406857-257.901714H721.408L512 1011.565714h93.110857l52.370286-149.284571h221.037714l52.370286 149.284571H1024l-209.481143-597.284571z m-131.876571 367.542857L768 552.228571l85.357714 229.668572H682.642286z" fill="#3370FF" p-id="3500"></path></svg>