<?xml version="1.0" standalone="no"?><!DOCTYPE svg PUBLIC "-//W3C//DTD SVG 1.1//EN" "http://www.w3.org/Graphics/SVG/1.1/DTD/svg11.dtd"><svg t="1643112073762" class="icon" viewBox="0 0 1024 1024" version="1.1" xmlns="http://www.w3.org/2000/svg" p-id="43050" xmlns:xlink="http://www.w3.org/1999/xlink" width="200" height="200"><defs><style type="text/css"></style></defs><path d="M512 170.666667C323.456 170.666667 170.666667 323.498667 170.666667 512c0 188.522667 152.789333 341.333333 341.333333 341.333333 188.501333 0 341.333333-152.810667 341.333333-341.333333C853.333333 323.498667 700.501333 170.666667 512 170.666667zM645.546667 531.882667c13.418667 0 24.298667 10.858667 24.298667 24.298667s-10.88 24.298667-24.298667 24.298667l-109.248 0 0 120.597333C536.298667 714.474667 525.376 725.333333 512 725.333333c-13.354667 0-24.298667-10.858667-24.298667-24.277333l0-120.597333L378.453333 580.458667c-13.418667 0-24.298667-10.858667-24.298667-24.298667s10.88-24.298667 24.298667-24.298667l109.248 0 0-57.152L378.453333 474.709333c-13.418667 0-24.298667-10.858667-24.298667-24.298667 0-13.397333 10.88-24.277333 24.298667-24.277333l109.248 0 0-6.464-77.930667-79.36c-0.021333-0.021333-0.064-0.042667-0.085333-0.064s-0.042667-0.064-0.064-0.085333l-0.597333-0.618667 0.128-0.128c-8.661333-9.621333-8.448-24.384 0.874667-33.493333 9.344-9.173333 23.978667-9.066667 33.472-0.32l0.128-0.128 0.64 0.661333c0.042667 0.021333 0.085333 0.042667 0.106667 0.064s0.042667 0.064 0.064 0.106667l67.114667 68.309333 67.498667-68.757333c9.386667-9.578667 24.789333-9.664 34.346667-0.298667 9.578667 9.408 9.664 24.768 0.298667 34.346667l-77.397333 78.762667 0 7.424 109.248 0c13.418667 0 24.298667 10.88 24.298667 24.277333 0 13.44-10.88 24.298667-24.298667 24.298667l-109.248 0 0 57.152L645.546667 531.818667zM512 0C342.784 0 192.96 82.24 99.754667 208.746667l-30.933333-17.856L68.629333 190.997333C58.56 185.749333 46.058667 189.162667 40.341333 199.082667c-1.834667 3.178667-2.474667 6.592-2.56 10.005333L37.312 209.322667l11.456 115.626667 0.533333 0.298667c0.597333 6.698667 3.946667 13.056 10.218667 16.661333 6.250667 3.605333 13.418667 3.306667 19.52 0.469333l0.533333 0.32 103.808-47.018667 0.021333-0.448c3.754667-1.792 7.125333-4.288 9.344-8.149333 5.546667-9.6 2.517333-21.525333-6.314667-27.84l0.042667-0.448-30.592-17.664C237.717333 133.738667 366.506667 64 512 64c247.424 0 448 200.597333 448 448 0 247.466667-200.576 448-448 448-170.218667 0-318.229333-94.890667-394.048-234.666667l-58.24 26.133333C145.642667 913.472 315.776 1024 512 1024c282.752 0 512-229.205333 512-512C1024 229.248 794.752 0 512 0z" p-id="43051"></path></svg>