<?xml version="1.0" standalone="no"?><!DOCTYPE svg PUBLIC "-//W3C//DTD SVG 1.1//EN" "http://www.w3.org/Graphics/SVG/1.1/DTD/svg11.dtd"><svg t="1648202099190" class="icon" viewBox="0 0 1024 1024" version="1.1" xmlns="http://www.w3.org/2000/svg" p-id="1987" xmlns:xlink="http://www.w3.org/1999/xlink" width="200" height="200"><defs><style type="text/css">@font-face { font-family: feedback-iconfont; src: url("//at.alicdn.com/t/font_1031158_u69w8yhxdu.woff2?t=1630033759944") format("woff2"), url("//at.alicdn.com/t/font_1031158_u69w8yhxdu.woff?t=1630033759944") format("woff"), url("//at.alicdn.com/t/font_1031158_u69w8yhxdu.ttf?t=1630033759944") format("truetype"); }
</style></defs><path d="M268.202667 810.666667h148.309333a85.461333 85.461333 0 0 1-74.154667 128 85.461333 85.461333 0 0 1-74.154666-128z m427.946666 0h148.309334a85.461333 85.461333 0 0 1-74.154667 128 85.461333 85.461333 0 0 1-74.154667-128zM133.717333 170.666667H42.794667A42.752 42.752 0 0 1 0 128c0-23.552 19.2-42.666667 42.794667-42.666667h131.456a42.666667 42.666667 0 0 1 42.581333 39.637334L256.768 682.666667H855.893333l42.794667-469.333334H342.357333a42.752 42.752 0 0 1-42.794666-42.666666c0-23.552 19.2-42.666667 42.794666-42.666667h596.181334a42.752 42.752 0 0 1 42.666666 45.525333l-37.034666 554.666667a42.752 42.752 0 0 1-42.709334 39.808H211.370667c-22.613333 0-41.301333-17.493333-42.666667-40.021333L133.674667 170.666667z m475.776 399.104l-118.186666-106.837334-102.144 102.101334a42.666667 42.666667 0 0 1-60.330667 0l-0.64-0.682667a42.666667 42.666667 0 0 1-0.682667-59.648L455.168 371.2a42.666667 42.666667 0 0 1 59.349333-2.218667l122.368 110.208 102.954667-106.624a42.666667 42.666667 0 0 1 60.330667-1.024 42.496 42.496 0 0 1 0.938666 60.202667l-132.437333 136.106667a42.666667 42.666667 0 0 1-59.178667 1.877333z" p-id="1988" fill="#515151"></path></svg>