<?xml version="1.0" standalone="no"?><!DOCTYPE svg PUBLIC "-//W3C//DTD SVG 1.1//EN" "http://www.w3.org/Graphics/SVG/1.1/DTD/svg11.dtd"><svg t="1643103465491" class="icon" viewBox="0 0 1024 1024" version="1.1" xmlns="http://www.w3.org/2000/svg" p-id="18266" xmlns:xlink="http://www.w3.org/1999/xlink" width="200" height="200"><defs><style type="text/css"></style></defs><path d="M421.647059 12.047059H60.235294a48.188235 48.188235 0 0 0-48.188235 48.188235v361.411765a48.188235 48.188235 0 0 0 48.188235 48.188235h361.411765a48.188235 48.188235 0 0 0 48.188235-48.188235V60.235294A48.188235 48.188235 0 0 0 421.647059 12.047059z m-48.188235 96.37647v265.035295H108.423529V108.423529h265.035295zM421.647059 554.164706H60.235294a48.188235 48.188235 0 0 0-48.188235 48.188235v361.411765a48.188235 48.188235 0 0 0 48.188235 48.188235h361.411765a48.188235 48.188235 0 0 0 48.188235-48.188235v-361.411765a48.188235 48.188235 0 0 0-48.188235-48.188235z m-48.188235 96.37647v265.035295H108.423529v-265.035295h265.035295zM963.764706 554.164706h-361.411765a48.188235 48.188235 0 0 0-48.188235 48.188235v361.411765a48.188235 48.188235 0 0 0 48.188235 48.188235h361.411765a48.188235 48.188235 0 0 0 48.188235-48.188235v-361.411765a48.188235 48.188235 0 0 0-48.188235-48.188235z m-48.188235 96.37647v265.035295h-265.035295v-265.035295h265.035295z" fill="#2c2c2c" p-id="18267"></path></svg>