<?xml version="1.0" standalone="no"?><!DOCTYPE svg PUBLIC "-//W3C//DTD SVG 1.1//EN" "http://www.w3.org/Graphics/SVG/1.1/DTD/svg11.dtd"><svg t="1643105780934" class="icon" viewBox="0 0 1024 1024" version="1.1" xmlns="http://www.w3.org/2000/svg" p-id="22857" xmlns:xlink="http://www.w3.org/1999/xlink" width="200" height="200"><defs><style type="text/css"></style></defs><path d="M714.63936 249.1648s-3.46112 19.13856-4.96128 32.2048c-0.49152 5.03296 4.8384 8.704 8.7808 8.704 1.26976 0 2.65216-0.29184 4.08064-0.94208 11.06944-5.21728 27.8784-13.12768 31.68256-14.92992 3.73248 1.80224 20.3776 9.88672 31.3088 15.08352 1.408 0.6656 2.7904 0.95744 4.04992 0.95744 3.87072 0 8.82176-3.6608 8.38144-8.70912-1.50016-13.08672-3.82976-32.24576-3.82976-32.24576s14.45888-16.65536 23.61344-27.22304c3.23584-3.82976 1.14688-10.89024-5.23264-11.90912-13.0304-2.35008-33.19296-6.11328-33.19296-6.11328s-10.24-18.74944-17.24928-30.6944c-5.06368-8.86272-5.632-9.17504-7.95136-9.17504-2.32448 0-3.40992 0.88064-7.81312 9.17504-7.07072 11.9552-17.43872 30.65856-17.43872 30.65856s-20.40832 4.5568-33.60256 6.90688c-6.4512 1.01888-8.57088 6.44608-5.30944 10.31168 9.25184 10.53184 24.68352 27.93984 24.68352 27.93984z" fill="#575757" p-id="22858"></path><path d="M825.96864 87.33184H198.02624c-38.4768 0-69.77024 31.08864-69.77024 69.2992v710.73792c0 38.21056 31.29856 69.2992 69.77024 69.2992h627.94752c38.48704 0 69.77536-31.0784 69.7856-69.2992V156.63104c-0.01024-38.21056-31.3088-69.2992-69.79072-69.2992zM486.50752 834.23232H279.38816c-15.53408 0-25.89184-10.34752-25.89184-25.89184 0-15.52896 10.35264-25.88672 25.89184-25.88672h207.11936c15.52896 0 25.89184 10.34752 25.89184 25.88672-0.00512 15.5392-10.36288 25.89184-25.89184 25.89184z m-233.0112-181.22752c0-15.53408 10.35264-25.89696 25.89184-25.89696h155.3408c15.52896 0 25.89184 10.34752 25.89184 25.89696s-10.35776 25.89696-25.89184 25.89696h-155.3408c-15.5392 0-25.89184-10.36288-25.89184-25.89696z m388.352-129.44896H279.38816c-15.53408 0-25.89184-10.35776-25.89184-25.89184 0-15.53408 10.35264-25.89184 25.89184-25.89184h362.46016c15.51872 0 25.89184 10.35264 25.89184 25.89184-0.00512 15.52896-10.35776 25.89184-25.89184 25.89184z m211.81952-191.98464a29.63456 29.63456 0 0 1-8.76032 21.13024 29.5936 29.5936 0 0 1-9.49248 6.39488 29.568 29.568 0 0 1-11.62752 2.35008h-2.63168l-31.70816-18.20672-34.33984 19.71712-34.33984-19.71712-31.70816 18.20672h-2.63168a29.7728 29.7728 0 0 1-27.51488-18.2528 29.696 29.696 0 0 1-2.36032-11.648V154.75712a29.73184 29.73184 0 0 1 8.77056-21.13536 29.48096 29.48096 0 0 1 9.49248-6.39488 29.40416 29.40416 0 0 1 11.61216-2.35008H823.808a29.72672 29.72672 0 0 1 21.13024 8.76544 29.92128 29.92128 0 0 1 6.38976 9.48736c1.56672 3.69664 2.35008 7.6032 2.35008 11.648v176.7936h-0.01024z" fill="#575757" p-id="22859"></path></svg>