<?xml version="1.0" standalone="no"?><!DOCTYPE svg PUBLIC "-//W3C//DTD SVG 1.1//EN" "http://www.w3.org/Graphics/SVG/1.1/DTD/svg11.dtd"><svg t="1644476729141" class="icon" viewBox="0 0 1024 1024" version="1.1" xmlns="http://www.w3.org/2000/svg" p-id="23605" xmlns:xlink="http://www.w3.org/1999/xlink" width="32" height="32"><defs><style type="text/css"></style></defs><path d="M230.4 865.462857h563.2v73.142857H230.4zM917.942857 118.674286H106.057143c-20.114286 0-36.571429 16.457143-36.571429 36.571428v626.651429c0 20.114286 16.457143 36.571429 36.571429 36.571428h811.885714c20.114286 0 36.571429-16.457143 36.571429-36.571428V155.245714a36.571429 36.571429 0 0 0-36.571429-36.571428zM770.011429 512H663.771429l-34.377143-89.6-118.308572 265.142857-90.331428-194.925714-39.131429 98.56h-127.817143v-73.142857h78.08l83.565715-210.468572 94.171428 203.337143 124.708572-279.405714L714.057143 438.857143h55.954286v73.142857z" fill="#515151" p-id="23606"></path></svg>