<?xml version="1.0" standalone="no"?><!DOCTYPE svg PUBLIC "-//W3C//DTD SVG 1.1//EN" "http://www.w3.org/Graphics/SVG/1.1/DTD/svg11.dtd"><svg t="1643103359200" class="icon" viewBox="0 0 1024 1024" version="1.1" xmlns="http://www.w3.org/2000/svg" p-id="17585" xmlns:xlink="http://www.w3.org/1999/xlink" width="200" height="200"><defs><style type="text/css"></style></defs><path d="M93.217566 591.434144l345.070106 0c16.506952 0 26.411533-13.421684 26.411533-26.356274 0-16.506952-13.421684-26.356274-26.411533-26.356274l-344.366072 0.054235c-1.461281-0.324388-2.975774-0.541329-4.437056-0.541329-11.58178 0-22.62223 11.58178-22.62223 23.86657C66.861292 577.742307 79.147106 591.434144 93.217566 591.434144z" p-id="17586" fill="#515151"></path><path d="M93.217566 443.957301l345.070106 0c16.506952 0 26.411533-13.421684 26.411533-26.356274 0-16.506952-13.421684-26.357298-26.411533-26.357298l-344.366072 0.055259c-1.461281-0.324388-2.868327-0.541329-4.38282-0.541329-11.636015 0-22.676465 11.636015-22.676465 23.920806C66.861292 430.265464 79.147106 443.957301 93.217566 443.957301z" p-id="17587" fill="#515151"></path><path d="M143.332964 296.534693l345.069083 0c16.506952 0 26.411533-13.421684 26.411533-26.356274 0-16.506952-13.421684-26.357298-26.411533-26.357298l-344.528777 0.054235c-1.678222-0.378623-3.409656-0.540306-4.978385-0.540306-13.747095 0-21.919219 12.123109-21.919219 23.86657C116.975666 284.46582 127.854435 296.534693 143.332964 296.534693z" p-id="17588" fill="#515151"></path><path d="M955.350992 529.899672c-0.594541-1.190105-1.190105-2.326998-1.190105-3.13848l0-0.86674L758.732939 250.531963c-6.711865-6.711865-13.58439-6.711865-19.645432-6.711865l-100.446713 0 0-97.524151c0-16.506952-13.421684-26.357298-26.411533-26.357298L217.15325 119.93865c-16.561188 0-26.411533 13.421684-26.411533 26.357298 0 12.93459 9.850345 26.356274 26.411533 26.356274l365.852432 0 0 389.447826c0 16.506952 13.313214 26.357298 26.302039 26.357298l292.193829 0 0 165.498288-48.112788 0c-12.988826-56.500828-64.403822-97.253998-123.177414-97.253998-58.72038 0-110.080118 40.753169-123.069967 97.253998L411.010423 753.955634c-12.988826-56.500828-64.402799-97.253998-123.177414-97.253998-58.666144 0-110.080118 40.753169-123.068943 97.253998l-71.492264 0c-16.506952 0-26.357298 13.475919-26.357298 26.383904 0 16.561188 13.367449 26.41051 26.357298 26.41051l74.414827 0c12.988826 56.501852 64.403822 97.308233 123.177414 97.308233 58.72038 0 110.080118-40.806381 123.069967-97.308233l196.130959 0c12.988826 56.501852 64.403822 97.308233 123.123178 97.308233s110.134353-40.806381 123.123178-97.308233l74.468039 0c16.452717 0 26.357298-13.530155 26.357298-26.41051L957.136661 535.583115C957.137685 533.417799 956.216709 531.523659 955.350992 529.899672zM638.640794 535.744797 638.640794 296.534693l87.24197 0L895.926578 535.744797 638.640794 535.744797zM804.139082 783.263124c0 39.833217-31.172977 71.006194-70.950935 71.006194-39.778982 0-70.951959-31.172977-70.951959-71.006194 0-39.751353 31.172977-70.924329 70.951959-70.924329C772.966105 712.338794 804.139082 743.511771 804.139082 783.263124zM361.761766 783.263124c0 39.833217-31.174 71.006194-70.897723 71.006194-39.832194 0-71.006194-31.172977-71.006194-71.006194 0-39.751353 31.174-70.924329 71.006194-70.924329C330.588789 712.338794 361.761766 743.511771 361.761766 783.263124z" p-id="17589" fill="#515151"></path></svg>