<?xml version="1.0" standalone="no"?><!DOCTYPE svg PUBLIC "-//W3C//DTD SVG 1.1//EN" "http://www.w3.org/Graphics/SVG/1.1/DTD/svg11.dtd"><svg t="1648202224058" class="icon" viewBox="0 0 1024 1024" version="1.1" xmlns="http://www.w3.org/2000/svg" p-id="6248" xmlns:xlink="http://www.w3.org/1999/xlink" width="200" height="200"><defs><style type="text/css">@font-face { font-family: feedback-iconfont; src: url("//at.alicdn.com/t/font_1031158_u69w8yhxdu.woff2?t=1630033759944") format("woff2"), url("//at.alicdn.com/t/font_1031158_u69w8yhxdu.woff?t=1630033759944") format("woff"), url("//at.alicdn.com/t/font_1031158_u69w8yhxdu.ttf?t=1630033759944") format("truetype"); }
</style></defs><path d="M910.474097 295.702799v-2.978198l-0.802524-1.143858-0.229293-1.259807-0.457283-0.458585c-0.573232-1.602443-1.259807-3.204885-2.175674-4.808631-0.343939-0.573232-0.573232-1.146463-0.915868-1.602443l-0.114646-0.229292c-0.573232-0.91717-1.14516-1.833038-1.717089-2.63426v-0.915867L624.90056 14.365964v-1.029211L620.206575 9.901272l-1.259807-1.259806-0.458585-0.458586-1.487796-1.487796h-0.802524c-1.029211-0.687878-2.061028-1.259807-3.091542-1.946382-0.571929-0.343939-1.258504-0.687878-2.061028-1.030514-2.976896-1.374453-5.724499-2.290321-8.702698-2.863552l-0.914564-0.229292h-0.802525c-1.946382-0.342636-3.778117-0.457282-5.609852-0.457283H193.679308C149.136611 0.168061 112.953975 34.977547 112.953975 77.801852v868.167003c0 42.825608 36.183939 77.748438 80.725333 77.748438h636.641384c44.542697 0 80.725333-34.809486 80.725333-77.748438V301.198005c-0.114646-1.831735-0.229293-3.663471-0.573231-5.495206zM631.883562 120.970097l152.176041 144.617201H631.884865V120.970097z m188.400367 814.750941c0 3.435481-12.259338 6.993425-23.167675 6.993425H211.342656c-17.663349 0-17.663349-25.408489-17.663348-45.921058V103.943817c0-30.865913 17.371522-30.865913 37.323888-30.865914 13.301578 0 118.244641-0.256651 314.829191-0.772559v224.837048c0 19.693109 28.915623 39.895613 49.183267 39.895613h225.269578V935.722341z" fill="#515151" p-id="6249"></path><path d="M711.694331 724.404438H312.306972c-19.581069 0-34.604947 20.095674-34.604947 40.363318 0 20.266341 14.910534 40.362015 34.604947 40.362015H711.693028c19.581069 0 35.67715-20.095674 35.67715-40.362015-0.114646-20.267644-15.982738-40.363318-35.67715-40.363318z m0-153.778484H312.306972c-19.581069 0-35.527328 21.256468-35.527328 41.524112 0 20.267644 15.832916 41.524112 35.527328 41.524112H711.693028c19.581069 0 35.94683-21.256468 35.94683-41.524112-0.114646-20.267644-16.252417-41.524112-35.94683-41.524112z m-435.599959-121.57199c0 20.266341 16.516885 41.305242 36.211297 41.305242h399.503308c19.581069 0 34.332662-21.038901 34.332662-41.305242 0-19.281425-16.060906-39.774453-34.332662-41.271369H312.306972c-19.694412 0-36.211298 21.003725-36.211298 41.271369z" fill="#515151" p-id="6250"></path></svg>