<?xml version="1.0" standalone="no"?><!DOCTYPE svg PUBLIC "-//W3C//DTD SVG 1.1//EN" "http://www.w3.org/Graphics/SVG/1.1/DTD/svg11.dtd"><svg t="1643113314142" class="icon" viewBox="0 0 1024 1024" version="1.1" xmlns="http://www.w3.org/2000/svg" p-id="47412" xmlns:xlink="http://www.w3.org/1999/xlink" width="200" height="200"><defs><style type="text/css"></style></defs><path d="M517.688889 786.014815H128.474074a17.825185 17.825185 0 0 0-17.92 17.92v102.4a17.92 17.92 0 0 0 17.92 17.92H517.688889a17.825185 17.825185 0 0 0 17.92-17.92V803.84a17.825185 17.825185 0 0 0-17.92-17.825185zM491.804444 872.296296a6.637037 6.637037 0 0 1-6.637037 6.637037H161.185185a6.637037 6.637037 0 0 1-6.637037-6.637037v-30.909629a9.481481 9.481481 0 0 1 9.481482-9.481482h321.137777a6.637037 6.637037 0 0 1 6.637037 6.637037z" fill="#515151" p-id="47413"></path><path d="M934.684444 340.66963a412.444444 412.444444 0 0 0-610.702222-181.76l-2.939259 1.991111L293.925926 191.905185 62.577778 455.111111a23.04 23.04 0 0 0-5.688889 18.962963l50.536296 273.161482a22.755556 22.755556 0 0 0 22.376296 18.962963h386.844445a22.755556 22.755556 0 0 0 22.376296-18.962963L589.463704 474.074074a23.04 23.04 0 0 0-5.30963-18.962963L360.296296 198.637037a340.385185 340.385185 0 0 1 194.085926-60.207407c204.8 0 361.813333 158.340741 361.813334 362.951111 0 128.379259-57.742222 243.863704-166.58963 312.225185a68.551111 68.551111 0 0 0-90.832593-9.481482 71.585185 71.585185 0 0 0 61.155556 127.810371c33.943704-10.524444 55.087407-39.063704 49.588148-74.24a18.962963 18.962963 0 0 0 4.551111-2.180741A421.357037 421.357037 0 0 0 967.111111 501.285926a407.703704 407.703704 0 0 0-32.426667-160.616296zM323.508148 474.927407a24.651852 24.651852 0 1 1-24.651852 24.651852 24.651852 24.651852 0 0 1 24.651852-24.651852z m205.179259-7.111111a22.85037 22.85037 0 0 1 5.30963 18.962963l-29.866667 207.454815a22.660741 22.660741 0 0 1-22.471111 18.962963H165.072593a22.755556 22.755556 0 0 1-22.471112-18.962963l-29.677037-207.739259a22.471111 22.471111 0 0 1 5.30963-18.962963L302.648889 256v180.148148a66.37037 66.37037 0 1 0 41.623704 0V256z m169.718519 426.666667a30.151111 30.151111 0 0 1-27.97037-18.962963 30.53037 30.53037 0 0 1 6.542222-32.995556 30.340741 30.340741 0 1 1 21.428148 51.768889z" fill="#515151" p-id="47414"></path></svg>