<?xml version="1.0" standalone="no"?><!DOCTYPE svg PUBLIC "-//W3C//DTD SVG 1.1//EN" "http://www.w3.org/Graphics/SVG/1.1/DTD/svg11.dtd"><svg t="1643108226368" class="icon" viewBox="0 0 1024 1024" version="1.1" xmlns="http://www.w3.org/2000/svg" p-id="31807" xmlns:xlink="http://www.w3.org/1999/xlink" width="200" height="200"><defs><style type="text/css"></style></defs><path d="M748.3 160.2H275.7c-33.1 0-60 26.9-60 60v583.6c0 33.1 26.9 60 60 60h472.6c33.1 0 60-26.9 60-60V220.2c0-33.1-26.9-60-60-60z m20 643.6c0 11-9 20-20 20H275.7c-11 0-20-9-20-20V220.2c0-11 9-20 20-20h472.6c11 0 20 9 20 20v583.6z" p-id="31808"></path><path d="M363.9 287.9h-24c-11 0-20 9-20 20v24c0 11 9 20 20 20h24c11 0 20-9 20-20v-24c0-11-8.9-20-20-20zM674 300H458c-11 0-20 9-20 20s9 20 20 20h216c11 0 20-9 20-20s-9-20-20-20zM363.9 416.2h-24c-11 0-20 9-20 20v24c0 11 9 20 20 20h24c11 0 20-9 20-20v-24c0-11.1-8.9-20-20-20zM674 428.2H458c-11 0-20 9-20 20s9 20 20 20h216c11 0 20-9 20-20s-9-20-20-20zM363.9 543.8h-24c-11 0-20 9-20 20v24c0 11 9 20 20 20h24c11 0 20-9 20-20v-24c0-11-8.9-20-20-20zM674 555.8H458c-11 0-20 9-20 20s9 20 20 20h216c11 0 20-9 20-20s-9-20-20-20zM363.9 672h-24c-11 0-20 9-20 20v24c0 11 9 20 20 20h24c11 0 20-9 20-20v-24c0-11-8.9-20-20-20zM674 684H458c-11 0-20 9-20 20s9 20 20 20h216c11 0 20-9 20-20s-9-20-20-20z" p-id="31809"></path></svg>