<?xml version="1.0" standalone="no"?><!DOCTYPE svg PUBLIC "-//W3C//DTD SVG 1.1//EN" "http://www.w3.org/Graphics/SVG/1.1/DTD/svg11.dtd"><svg t="1643114871013" class="icon" viewBox="0 0 1024 1024" version="1.1" xmlns="http://www.w3.org/2000/svg" p-id="7374" xmlns:xlink="http://www.w3.org/1999/xlink" width="200" height="200"><defs><style type="text/css"></style></defs><path d="M857.6 725.333333L810.666667 678.4l59.733333-59.733333 149.333333 149.333333-149.333333 149.333333-59.733333-59.733333 46.933333-46.933333H682.666667v-85.333334h174.933333zM768 597.333333v-106.666666l-213.333333 123.733333v145.066667l85.333333-46.933334v93.866667l-128 72.533333L170.666667 682.666667V366.933333L512 170.666667l341.333333 196.266666V597.333333h-85.333333z m-337.066667-102.4l81.066667 46.933334 238.933333-136.533334-81.066666-46.933333-238.933334 136.533333z m-85.333333-51.2l238.933333-136.533333-72.533333-42.666667-238.933333 136.533334 72.533333 42.666666zM256 490.666667v145.066666l213.333333 123.733334v-145.066667l-213.333333-123.733333z" fill="#444444" p-id="7375"></path></svg>