<?xml version="1.0" standalone="no"?><!DOCTYPE svg PUBLIC "-//W3C//DTD SVG 1.1//EN" "http://www.w3.org/Graphics/SVG/1.1/DTD/svg11.dtd"><svg t="1643112369522" class="icon" viewBox="0 0 1024 1024" version="1.1" xmlns="http://www.w3.org/2000/svg" p-id="45244" xmlns:xlink="http://www.w3.org/1999/xlink" width="200" height="200"><defs><style type="text/css"></style></defs><path d="M143.36 739.555556V591.644444c67.015111 54.272 191.715556 91.022222 334.506667 91.022223v-52.337778c-204.231111 0-334.506667-76.8-334.506667-129.706667V352.711111c67.015111 54.272 191.715556 91.022222 334.506667 91.022222s267.491556-36.408889 334.506666-91.022222v211.057778H864.711111V261.688889c0-100.579556-173.169778-182.044444-386.844444-182.044445S91.022222 161.109333 91.022222 261.688889v477.866667c0 100.579556 173.169778 182.044444 386.844445 182.044444v-52.337778c-204.231111 0-334.506667-76.8-334.506667-129.706666zM477.866667 131.982222c204.8 0 334.506667 76.8 334.506666 129.706667S682.666667 391.395556 477.866667 391.395556 143.36 314.595556 143.36 261.688889 273.635556 131.982222 477.866667 131.982222z" fill="#515151" p-id="45245"></path><path d="M694.044444 702.577778h238.933334v142.222222H694.044444z" fill="#515151" p-id="45246"></path><path d="M512 773.688889l230.058667 170.666667V603.022222L512 773.688889z" fill="#515151" p-id="45247"></path></svg>