<?xml version="1.0" standalone="no"?><!DOCTYPE svg PUBLIC "-//W3C//DTD SVG 1.1//EN" "http://www.w3.org/Graphics/SVG/1.1/DTD/svg11.dtd"><svg t="1643021494501" class="icon" viewBox="0 0 1024 1024" version="1.1" xmlns="http://www.w3.org/2000/svg" p-id="4740" xmlns:xlink="http://www.w3.org/1999/xlink" width="200" height="200"><defs><style type="text/css"></style></defs><path d="M544 256 320 256l0 192c0 0 170.88 0 224 0S640 405.12 640 352C640 298.88 597.12 256 544 256zM480 0C215.04 0 0 215.04 0 480 0 744.96 215.04 960 480 960c264.96 0 480-215.04 480-480C960 215.04 744.96 0 480 0zM693.76 717.44c8.96 15.36 1.28 34.56-13.44 43.52-15.36 8.96-39.04 3.84-48-11.52l-128-221.44C501.12 522.88 501.12 517.12 501.76 512 417.92 512 320 512 320 512l0 224C320 753.92 305.92 768 288 768 270.08 768 256 753.92 256 736l0-512C256 206.08 270.08 192 288 192c0 0 191.36 0 256 0C632.32 192 704 263.68 704 352c0 78.08-56.32 143.36-130.56 156.8L693.76 717.44z" p-id="4741"></path></svg>