<?xml version="1.0" standalone="no"?><!DOCTYPE svg PUBLIC "-//W3C//DTD SVG 1.1//EN" "http://www.w3.org/Graphics/SVG/1.1/DTD/svg11.dtd"><svg t="1643092663545" class="icon" viewBox="0 0 1024 1024" version="1.1" xmlns="http://www.w3.org/2000/svg" p-id="10527" xmlns:xlink="http://www.w3.org/1999/xlink" width="200" height="200"><defs><style type="text/css"></style></defs><path d="M733.45 734.89h-620c-0.8 0-1.45-0.65-1.45-1.45v-620c0-0.8 0.65-1.45 1.45-1.45h620c0.8 0 1.45 0.65 1.45 1.45v620c-0.01 0.8-0.66 1.45-1.45 1.45z" fill="#7F7F7F" p-id="10528"></path><path d="M910.55 912h-620c-0.8 0-1.45-0.65-1.45-1.45v-620c0-0.8 0.65-1.45 1.45-1.45h620c0.8 0 1.45 0.65 1.45 1.45v620c0 0.8-0.65 1.45-1.45 1.45z" fill="#B2B2B2" p-id="10529"></path><path d="M616.03 721.86l10.08 7.56c11.34 8.82 27.72 7.56 36.54-3.78l65.51-79.37 20.16 16.38-64.26 79.37c-8.82 11.34-6.3 27.72 5.04 36.54l11.34 7.56L912 531.5V364.87h-1.18c0.01 0.57 0.02 1.13 0.02 1.7L616.03 721.86zM574.45 821.39c-1.26 10.08 21.42 17.64 30.23 13.86l76.85-28.98-80.63-64.26-26.45 79.38z" fill="#F4F4F4" p-id="10530"></path></svg>