<?xml version="1.0" standalone="no"?><!DOCTYPE svg PUBLIC "-//W3C//DTD SVG 1.1//EN" "http://www.w3.org/Graphics/SVG/1.1/DTD/svg11.dtd"><svg t="1643104106868" class="icon" viewBox="0 0 1024 1024" version="1.1" xmlns="http://www.w3.org/2000/svg" p-id="21095" xmlns:xlink="http://www.w3.org/1999/xlink" width="200" height="200"><defs><style type="text/css"></style></defs><path d="M922.86 518.61L519 101.3a9.89 9.89 0 0 0-14.28 0L100.94 518.61c-6.28 6.49-1.78 17.5 7.14 17.5h63.55V917a11.41 11.41 0 0 0 11.25 11.5h655.87A11.41 11.41 0 0 0 850 917V536.11h65.72c8.92 0 13.41-11.01 7.14-17.5zM333.41 878.24a9.2 9.2 0 0 1-9.06 9.27h-67.73a9.2 9.2 0 0 1-9.06-9.27V809a9.19 9.19 0 0 1 9.06-9.27h67.73a9.19 9.19 0 0 1 9.06 9.27z m0-120a9.19 9.19 0 0 1-9.06 9.27h-67.73a9.19 9.19 0 0 1-9.06-9.27v-69.3a9.19 9.19 0 0 1 9.06-9.27h67.73a9.19 9.19 0 0 1 9.06 9.27z m0-120.32a9.19 9.19 0 0 1-9.06 9.27h-67.73a9.19 9.19 0 0 1-9.06-9.27v-69.31a9.2 9.2 0 0 1 9.06-9.27h67.73a9.2 9.2 0 0 1 9.06 9.27z m115.68 240.32a9.19 9.19 0 0 1-9.06 9.27H372.3a9.2 9.2 0 0 1-9.06-9.27V809a9.19 9.19 0 0 1 9.06-9.27H440a9.19 9.19 0 0 1 9.06 9.27z m0-120a9.19 9.19 0 0 1-9.06 9.27H372.3a9.19 9.19 0 0 1-9.06-9.27v-69.3a9.19 9.19 0 0 1 9.06-9.27H440a9.19 9.19 0 0 1 9.06 9.27z m117.66 120a9.2 9.2 0 0 1-9.06 9.27H490a9.2 9.2 0 0 1-9.07-9.27V809a9.2 9.2 0 0 1 9.07-9.3h67.73a9.19 9.19 0 0 1 9.06 9.27z" p-id="21096"></path></svg>