<?xml version="1.0" standalone="no"?><!DOCTYPE svg PUBLIC "-//W3C//DTD SVG 1.1//EN" "http://www.w3.org/Graphics/SVG/1.1/DTD/svg11.dtd"><svg t="1642590048650" class="icon" viewBox="0 0 1024 1024" version="1.1" xmlns="http://www.w3.org/2000/svg" p-id="1171" xmlns:xlink="http://www.w3.org/1999/xlink" width="200" height="200"><defs><style type="text/css"></style></defs><path d="M125.35408 692.208h773.232V191.984H125.35408z m692.8-316.16L612.82608 552.24c0 8-7.328 8-14.688 8s-7.328-8-14.64-8l-198-144.16-146.72 144.16c-7.312 16-29.328 8-36.64 0-14.688-8-7.328-32 0-40l161.36-160.16c7.328-8 22-16 29.328-8l198 152.16L781.49808 328.048a32.512 32.512 0 0 1 44.016 8c7.36 16 7.36 32-7.36 40" p-id="1172"></path><path d="M891.33808 140.496H541.17808v-36.8A31.488 31.488 0 0 0 512.01008 74.288a31.504 31.504 0 0 0-29.168 29.44v36.8H132.66608A57.744 57.744 0 0 0 74.29808 199.36v485.536a63.04 63.04 0 0 0 58.368 58.848h350.176v29.408L322.29808 898.288c-14.56 7.36-14.56 22.08-7.28 36.8s21.888 14.72 36.496 7.36l131.312-95.616 14.56-14.72a13.6 13.6 0 0 1 21.888 0l14.608 14.72 131.312 95.616c7.28 0 7.28 7.36 14.608 7.36a26.688 26.688 0 0 0 21.888-7.36c7.28-14.72 7.28-29.44-7.328-36.8l-153.184-132.496v-29.44h350.16a62.992 62.992 0 0 0 58.368-58.816V199.36a57.776 57.776 0 0 0-58.368-58.896z m7.328 544.352l-765.984 7.36c-7.328 0-7.328 0-7.328-7.328V199.36c0-7.36 0-7.36 7.328-7.36h758.656c7.328 0 7.328 0 7.328 7.36V684.848z" p-id="1173"></path></svg>