<?xml version="1.0" standalone="no"?><!DOCTYPE svg PUBLIC "-//W3C//DTD SVG 1.1//EN" "http://www.w3.org/Graphics/SVG/1.1/DTD/svg11.dtd"><svg t="1643114447055" class="icon" viewBox="0 0 1024 1024" version="1.1" xmlns="http://www.w3.org/2000/svg" p-id="56740" xmlns:xlink="http://www.w3.org/1999/xlink" width="200" height="200"><defs><style type="text/css"></style></defs><path d="M889.263858 181.75398H132.310557c-38.257475 0-69.393828 31.123042-69.393828 69.366183v557.493272c0 38.243141 31.137377 69.366183 69.393828 69.366183h756.953301c38.257475 0 69.366183-31.123042 69.366183-69.366183V251.121186c0.001024-38.244165-31.108708-69.367207-69.366183-69.367206z m13.281841 626.860479c0 7.325899-5.970275 13.28184-13.281841 13.281841H132.310557c-7.33921 0-13.309485-5.955941-13.309485-13.281841V251.121186c0-7.325899 5.970275-13.28184 13.309485-13.28184h756.953301c7.311565 0 13.28184 5.955941 13.281841 13.28184v557.493273z" fill="#3E3A39" p-id="56741"></path><path d="M637.621514 566.324284h113.949222c15.499576 0 28.042171-12.555906 28.042171-28.042172 0-15.486266-12.542595-28.042171-28.042171-28.042171H637.621514c-15.499576 0-28.042171 12.555906-28.042171 28.042171 0 15.485242 12.542595 28.042171 28.042171 28.042172zM816.063225 391.346377H637.621514c-15.499576 0-28.042171 12.555906-28.042171 28.042171 0 15.486266 12.542595 28.042171 28.042171 28.042172h178.441711c15.499576 0 28.042171-12.555906 28.042171-28.042172 0-15.486266-12.541571-28.042171-28.042171-28.042171zM816.063225 637.361448H637.621514c-15.499576 0-28.042171 12.555906-28.042171 28.042171 0 15.486266 12.542595 28.042171 28.042171 28.042171h178.441711c15.499576 0 28.042171-12.555906 28.042171-28.042171 0-15.486266-12.541571-28.042171-28.042171-28.042171zM508.884317 537.076999h0.027645c15.472955 0 28.042171-12.542595 28.042171-28.01555 0-15.486266-12.542595-28.056506-28.014526-28.069816l-64.75358-0.05017 72.503368-86.363704c9.968548-11.857616 8.434767-29.548307-3.450494-39.516854-11.885261-9.940903-29.548307-8.379477-39.489209 3.450494l-85.96234 102.395699-85.96234-102.395699c-9.913258-11.829971-27.631593-13.391396-39.48921-3.450494-11.885261 9.968548-13.419041 27.659238-3.450493 39.516854l72.429648 86.275649-68.376086-0.053242h-0.027645c-15.472955 0-28.042171 12.542595-28.042171 28.015551 0 15.486266 12.542595 28.056506 28.014526 28.069816l95.049323 0.07372-0.03686 39.57112-94.957173-0.07372h-0.027645c-15.472955 0-28.042171 12.542595-28.042171 28.01555 0 15.486266 12.542595 28.056506 28.014526 28.069816l94.958197 0.07372-0.068601 72.975379c-0.027645 15.486266 12.51495 28.056506 28.015551 28.069816h0.027645c15.472955 0 28.01555-12.542595 28.042171-28.014526l0.0686-72.986642 94.957173 0.07372h0.027645c15.472955 0 28.042171-12.542595 28.042171-28.014527 0-15.486266-12.542595-28.056506-28.014526-28.069816l-94.959221-0.073719 0.037884-39.57112 94.866047 0.072695z" fill="#3E3A39" p-id="56742"></path></svg>