<?xml version="1.0" standalone="no"?><!DOCTYPE svg PUBLIC "-//W3C//DTD SVG 1.1//EN" "http://www.w3.org/Graphics/SVG/1.1/DTD/svg11.dtd"><svg t="1643114485620" class="icon" viewBox="0 0 1024 1024" version="1.1" xmlns="http://www.w3.org/2000/svg" p-id="1141" xmlns:xlink="http://www.w3.org/1999/xlink" width="200" height="200"><defs><style type="text/css"></style></defs><path d="M400 129.408a29.866667 29.866667 0 0 0-29.866667 29.866667v18.133333H288c-34.133333 0-61.866667 27.733333-61.866667 61.866667v528c0 34.176 27.733333 61.866667 61.866667 61.866666h448c34.133333 0 61.866667-27.690667 61.866667-61.866666V239.274667c0-34.133333-27.733333-61.866667-61.866667-61.866667h-82.133333v-18.133333a29.866667 29.866667 0 0 0-29.866667-29.866667h-224z m253.866667 107.733333h82.133333a2.133333 2.133333 0 0 1 2.133333 2.133334v528a2.133333 2.133333 0 0 1-2.133333 2.133333H288a2.133333 2.133333 0 0 1-2.133333-2.133333V239.274667a2.133333 2.133333 0 0 1 2.133333-2.133334h82.133333v18.133334a29.866667 29.866667 0 0 0 29.866667 29.866666h224a29.866667 29.866667 0 0 0 29.866667-29.866666v-18.133334z m-59.733334-48v36.266667h-164.266666v-36.266667h164.266666z" fill="#515151" p-id="1142"></path><path d="M581.12 378.154667a29.866667 29.866667 0 0 1 0 42.24l-77.013333 77.056h87.978666a29.866667 29.866667 0 0 1 21.077334 50.986666l-128 128a29.866667 29.866667 0 0 1-42.24-42.24l77.013333-77.013333h-87.893333a29.866667 29.866667 0 0 1-21.162667-50.986667l128-128a29.866667 29.866667 0 0 1 42.24 0z" fill="#515151" p-id="1143"></path></svg>