<?xml version="1.0" standalone="no"?><!DOCTYPE svg PUBLIC "-//W3C//DTD SVG 1.1//EN" "http://www.w3.org/Graphics/SVG/1.1/DTD/svg11.dtd"><svg t="1643107400798" class="icon" viewBox="0 0 1024 1024" version="1.1" xmlns="http://www.w3.org/2000/svg" p-id="27837" xmlns:xlink="http://www.w3.org/1999/xlink" width="200" height="200"><defs><style type="text/css"></style></defs><path d="M944 80v615H80V80h864m40-80H40C17.909 0 0 17.909 0 40v695c0 22.092 17.909 40 40 40h944c22.092 0 40-17.908 40-40V40c0-22.091-17.908-40-40-40z" fill="" p-id="27838"></path><path d="M472 710h80v282.566h-80z" fill="" p-id="27839"></path><path d="M894 1023.917H114c-22.091 0-40-17.908-40-40s17.909-40 40-40h780c22.092 0 40 17.908 40 40s-17.908 40-40 40zM248 606c-22.091 0-40-17.908-40-40V367c0-22.091 17.909-40 40-40s40 17.909 40 40v199c0 22.092-17.909 40-40 40zM507 606c-22.091 0-40-17.908-40-40V156c0-22.091 17.909-40 40-40 22.092 0 40 17.909 40 40v410c0 22.092-17.908 40-40 40zM766 606c-22.092 0-40-17.908-40-40V268c0-22.091 17.908-40 40-40s40 17.909 40 40v298c0 22.092-17.908 40-40 40z" fill="" p-id="27840"></path></svg>