<?xml version="1.0" standalone="no"?><!DOCTYPE svg PUBLIC "-//W3C//DTD SVG 1.1//EN" "http://www.w3.org/Graphics/SVG/1.1/DTD/svg11.dtd"><svg t="1643105340801" class="icon" viewBox="0 0 1024 1024" version="1.1" xmlns="http://www.w3.org/2000/svg" p-id="21253" xmlns:xlink="http://www.w3.org/1999/xlink" width="200" height="200"><defs><style type="text/css"></style></defs><path d="M911.882 344.221l-50.324-45.684c-27.133-24.593-62.227-38.159-98.811-38.159h-138.72v-70.454c0-54.262-44.198-98.46-98.46-98.46H162.355c-54.262 0-98.461 44.198-98.461 98.46v630.585h108.167v-0.001a110.518 110.518 0 0 1-0.061-3.509c0-1.087 0.02-2.168 0.051-3.247 0.01-0.336 0.025-0.671 0.038-1.007a112.66 112.66 0 0 1 0.178-3.373c0.052-0.754 0.112-1.505 0.179-2.255 0.029-0.325 0.055-0.651 0.087-0.976 0.104-1.061 0.219-2.118 0.353-3.169l0.006-0.042c0.132-1.038 0.283-2.07 0.444-3.098 0.05-0.317 0.105-0.631 0.157-0.947a107.029 107.029 0 0 1 1.051-5.472c0.064-0.293 0.125-0.586 0.191-0.878 0.233-1.027 0.477-2.049 0.739-3.065l0.004-0.014c0.259-1.004 0.535-2.001 0.821-2.993 0.083-0.289 0.171-0.575 0.257-0.863a110.18 110.18 0 0 1 0.971-3.102c0.242-0.733 0.493-1.463 0.75-2.189 0.09-0.255 0.178-0.511 0.27-0.766a109.32 109.32 0 0 1 2.285-5.787c0.111-0.259 0.226-0.516 0.338-0.773 0.305-0.698 0.616-1.392 0.935-2.082 0.132-0.285 0.264-0.57 0.398-0.853 0.335-0.708 0.678-1.411 1.027-2.111 0.112-0.224 0.221-0.449 0.334-0.672 0.472-0.93 0.954-1.853 1.452-2.767H119.91V189.924c0-23.367 19.081-42.447 42.448-42.447h363.21c23.369 0 42.448 19.08 42.448 42.447v574.572H378.685c0.497 0.914 0.98 1.838 1.452 2.767 0.113 0.223 0.222 0.449 0.334 0.672a114.181 114.181 0 0 1 1.425 2.964c0.319 0.69 0.63 1.384 0.935 2.082 0.113 0.258 0.228 0.515 0.338 0.773a108.982 108.982 0 0 1 2.285 5.787c0.092 0.254 0.179 0.511 0.27 0.766a108.438 108.438 0 0 1 1.056 3.132c0.229 0.716 0.45 1.436 0.665 2.159 0.086 0.288 0.173 0.574 0.257 0.863 0.286 0.993 0.563 1.989 0.821 2.993l0.004 0.014c0.262 1.016 0.506 2.038 0.739 3.065 0.066 0.292 0.127 0.586 0.191 0.878a115.125 115.125 0 0 1 0.663 3.265c0.137 0.733 0.265 1.469 0.388 2.207 0.052 0.316 0.107 0.631 0.157 0.947 0.161 1.029 0.312 2.061 0.444 3.098l0.006 0.042c0.134 1.051 0.249 2.109 0.353 3.169 0.032 0.324 0.058 0.651 0.087 0.976a111.708 111.708 0 0 1 0.249 3.366c0.044 0.752 0.079 1.506 0.108 2.262 0.013 0.336 0.028 0.67 0.038 1.007 0.031 1.079 0.051 2.161 0.051 3.247 0 1.175-0.025 2.343-0.061 3.509v0.001h243.344v-0.001a110.518 110.518 0 0 1-0.061-3.509c0-1.087 0.02-2.168 0.051-3.247 0.01-0.336 0.025-0.671 0.038-1.007a112.66 112.66 0 0 1 0.178-3.373c0.052-0.754 0.112-1.505 0.179-2.255 0.029-0.325 0.055-0.651 0.087-0.976 0.104-1.061 0.219-2.118 0.353-3.169l0.006-0.042c0.132-1.038 0.283-2.07 0.444-3.098 0.05-0.317 0.105-0.631 0.157-0.947a107.029 107.029 0 0 1 1.051-5.472c0.064-0.293 0.125-0.586 0.191-0.878 0.233-1.027 0.477-2.049 0.739-3.065l0.004-0.014c0.259-1.004 0.535-2.001 0.821-2.993 0.083-0.289 0.171-0.575 0.257-0.863a110.18 110.18 0 0 1 0.971-3.102c0.242-0.733 0.493-1.463 0.75-2.189 0.09-0.255 0.178-0.511 0.27-0.766a109.32 109.32 0 0 1 2.285-5.787c0.111-0.259 0.226-0.516 0.338-0.773 0.305-0.698 0.616-1.392 0.935-2.082 0.132-0.285 0.264-0.57 0.398-0.853 0.335-0.708 0.678-1.411 1.027-2.111 0.112-0.224 0.221-0.449 0.334-0.672 0.472-0.93 0.954-1.853 1.452-2.767H624.028V316.392h112.026v280.065h168.039v168.039h-62.187c0.497 0.914 0.98 1.838 1.452 2.767 0.113 0.223 0.222 0.449 0.334 0.672a114.181 114.181 0 0 1 1.425 2.964c0.319 0.69 0.63 1.384 0.935 2.082 0.113 0.258 0.228 0.515 0.338 0.773a108.982 108.982 0 0 1 2.285 5.787c0.092 0.254 0.179 0.511 0.27 0.766a108.438 108.438 0 0 1 1.056 3.132c0.229 0.716 0.45 1.436 0.665 2.159 0.086 0.288 0.173 0.574 0.257 0.863 0.286 0.993 0.563 1.989 0.821 2.993l0.004 0.014c0.262 1.016 0.506 2.038 0.739 3.065 0.066 0.292 0.127 0.586 0.191 0.878a115.125 115.125 0 0 1 0.663 3.265c0.137 0.733 0.265 1.469 0.388 2.207 0.052 0.316 0.107 0.631 0.157 0.947 0.161 1.029 0.312 2.061 0.444 3.098l0.006 0.042c0.134 1.051 0.249 2.109 0.353 3.169 0.032 0.324 0.058 0.651 0.087 0.976a111.708 111.708 0 0 1 0.249 3.366c0.044 0.752 0.079 1.506 0.108 2.262 0.013 0.336 0.028 0.67 0.038 1.007 0.031 1.079 0.051 2.161 0.051 3.247 0 1.175-0.025 2.343-0.061 3.509v0.001h104.944V453.098c0-41.397-17.592-81.043-48.223-108.877z m-7.789 196.222H792.067V321.204c11.641 3.938 22.492 10.329 31.858 18.817l50.325 45.686-0.001 0.001a91.085 91.085 0 0 1 29.845 67.39l-0.001 87.345z" fill="#515151" p-id="21254"></path><path d="M391.95 813.753c-0.01-0.336-0.025-0.671-0.038-1.007a112.66 112.66 0 0 0-0.178-3.373c-0.052-0.754-0.112-1.505-0.179-2.255-0.029-0.325-0.055-0.651-0.087-0.976a109.603 109.603 0 0 0-0.353-3.169l-0.006-0.042c-0.132-1.038-0.283-2.07-0.444-3.098-0.05-0.317-0.105-0.631-0.157-0.947a107.029 107.029 0 0 0-1.051-5.472c-0.064-0.293-0.125-0.586-0.191-0.878a107.689 107.689 0 0 0-0.739-3.065l-0.004-0.014a109.913 109.913 0 0 0-0.821-2.993c-0.083-0.289-0.171-0.575-0.257-0.863a110.18 110.18 0 0 0-0.971-3.102c-0.242-0.733-0.493-1.463-0.75-2.189-0.09-0.255-0.178-0.512-0.27-0.766a109.32 109.32 0 0 0-2.285-5.787c-0.111-0.259-0.226-0.516-0.338-0.773-0.305-0.698-0.616-1.392-0.935-2.082-0.132-0.285-0.264-0.57-0.398-0.853-0.335-0.708-0.678-1.411-1.027-2.111-0.112-0.224-0.221-0.449-0.334-0.672-0.472-0.93-0.954-1.853-1.452-2.767C360.046 730.246 323.739 707 282.001 707s-78.045 23.246-96.684 57.496c-0.497 0.914-0.98 1.838-1.452 2.767-0.113 0.223-0.222 0.449-0.334 0.672a114.181 114.181 0 0 0-1.425 2.964c-0.319 0.69-0.63 1.384-0.935 2.082-0.113 0.258-0.228 0.515-0.338 0.773a108.982 108.982 0 0 0-2.285 5.787c-0.092 0.254-0.179 0.511-0.27 0.766a108.438 108.438 0 0 0-1.056 3.132c-0.229 0.716-0.45 1.436-0.665 2.159-0.086 0.288-0.173 0.574-0.257 0.863-0.286 0.993-0.563 1.989-0.821 2.993l-0.004 0.014a107.689 107.689 0 0 0-0.739 3.065c-0.066 0.292-0.127 0.586-0.191 0.878a115.125 115.125 0 0 0-0.663 3.265c-0.137 0.733-0.265 1.469-0.388 2.207-0.052 0.316-0.107 0.631-0.157 0.947a109.414 109.414 0 0 0-0.444 3.098l-0.006 0.042a109.997 109.997 0 0 0-0.353 3.169c-0.032 0.324-0.058 0.651-0.087 0.976a111.708 111.708 0 0 0-0.249 3.366 112.66 112.66 0 0 0-0.108 2.262c-0.013 0.336-0.029 0.67-0.038 1.007a113.012 113.012 0 0 0-0.051 3.247c0 1.175 0.025 2.343 0.061 3.509C173.916 879.636 222.424 927 282.001 927s108.085-47.364 109.939-106.491c0.037-1.166 0.061-2.334 0.061-3.509 0-1.087-0.02-2.168-0.051-3.247zM282.001 871c-29.776 0-54-24.224-54-54s24.224-54 54-54 54 24.224 54 54-24.224 54-54 54zM855.171 813.753c-0.01-0.336-0.025-0.671-0.038-1.007a112.66 112.66 0 0 0-0.178-3.373c-0.052-0.754-0.112-1.505-0.179-2.255-0.029-0.325-0.055-0.651-0.087-0.976a109.603 109.603 0 0 0-0.353-3.169l-0.006-0.042c-0.132-1.038-0.283-2.07-0.444-3.098-0.05-0.317-0.105-0.631-0.157-0.947a107.029 107.029 0 0 0-1.051-5.472c-0.064-0.293-0.125-0.586-0.191-0.878a107.689 107.689 0 0 0-0.739-3.065l-0.004-0.014a109.913 109.913 0 0 0-0.821-2.993c-0.083-0.289-0.171-0.575-0.257-0.863a110.18 110.18 0 0 0-0.971-3.102c-0.242-0.733-0.493-1.463-0.75-2.189-0.09-0.255-0.178-0.512-0.27-0.766a109.32 109.32 0 0 0-2.285-5.787c-0.111-0.259-0.226-0.516-0.338-0.773-0.305-0.698-0.616-1.392-0.935-2.082-0.132-0.285-0.264-0.57-0.398-0.853-0.335-0.708-0.678-1.411-1.027-2.111-0.112-0.224-0.221-0.449-0.334-0.672-0.472-0.93-0.954-1.853-1.452-2.767C823.267 730.246 786.96 707 745.222 707s-78.045 23.246-96.684 57.496c-0.497 0.914-0.98 1.838-1.452 2.767-0.113 0.223-0.222 0.449-0.334 0.672a114.181 114.181 0 0 0-1.425 2.964c-0.319 0.69-0.63 1.384-0.935 2.082-0.113 0.258-0.228 0.515-0.338 0.773a108.982 108.982 0 0 0-2.285 5.787c-0.092 0.254-0.179 0.511-0.27 0.766a108.438 108.438 0 0 0-1.056 3.132c-0.229 0.716-0.45 1.436-0.665 2.159-0.086 0.288-0.173 0.574-0.257 0.863-0.286 0.993-0.563 1.989-0.821 2.993l-0.004 0.014a107.689 107.689 0 0 0-0.739 3.065c-0.066 0.292-0.127 0.586-0.191 0.878a115.125 115.125 0 0 0-0.663 3.265c-0.137 0.733-0.265 1.469-0.388 2.207-0.052 0.316-0.107 0.631-0.157 0.947a109.414 109.414 0 0 0-0.444 3.098l-0.006 0.042a109.997 109.997 0 0 0-0.353 3.169c-0.032 0.324-0.058 0.651-0.087 0.976a111.708 111.708 0 0 0-0.249 3.366 112.66 112.66 0 0 0-0.108 2.262c-0.013 0.336-0.029 0.67-0.038 1.007a113.012 113.012 0 0 0-0.051 3.247c0 1.175 0.025 2.343 0.061 3.509C637.137 879.636 685.645 927 745.222 927s108.085-47.364 109.939-106.491c0.037-1.166 0.061-2.334 0.061-3.509 0-1.087-0.02-2.168-0.051-3.247zM745.222 871c-29.776 0-54-24.224-54-54s24.224-54 54-54 54 24.224 54 54-24.224 54-54 54z" fill="#515151" p-id="21255"></path></svg>