<?xml version="1.0" standalone="no"?><!DOCTYPE svg PUBLIC "-//W3C//DTD SVG 1.1//EN" "http://www.w3.org/Graphics/SVG/1.1/DTD/svg11.dtd"><svg t="1643103725288" class="icon" viewBox="0 0 1024 1024" version="1.1" xmlns="http://www.w3.org/2000/svg" p-id="18622" xmlns:xlink="http://www.w3.org/1999/xlink" width="200" height="200"><defs><style type="text/css"></style></defs><path d="M512 961.49c-83.63 0-165.24-23.15-236.01-66.96-68.79-42.58-124.91-102.95-162.29-174.58-6.39-12.24-1.64-27.34 10.6-33.73 12.24-6.39 27.34-1.64 33.73 10.6C227.14 829.24 362.77 911.49 512 911.49c220.01 0 399-178.99 399-399 0-13.81 11.19-25 25-25s25 11.19 25 25c0 60.6-11.88 119.41-35.29 174.78-22.62 53.47-54.99 101.48-96.21 142.71-41.23 41.23-89.24 73.6-142.71 96.21-55.38 23.43-114.19 35.3-174.79 35.3z" fill="#333333" p-id="18623"></path><path d="M921.3 429.91l-54.24 69.21c-12.21 15.58-2.05 38.47 17.7 39.87l98.21 6.94c19.75 1.39 33.03-19.84 23.13-36.98l-43.97-76.15c-8.76-15.16-30.05-16.66-40.83-2.89zM104 513.51c-13.81 0-25-11.19-25-25 0-60.6 11.88-119.41 35.29-174.78 22.62-53.47 54.99-101.48 96.21-142.71 41.23-41.23 89.24-73.6 142.71-96.21C408.59 51.38 467.4 39.51 528 39.51c83.63 0 165.24 23.15 236.01 66.96 68.79 42.58 124.91 102.95 162.29 174.58 6.39 12.24 1.64 27.34-10.6 33.73-12.24 6.39-27.34 1.65-33.73-10.6C812.86 171.76 677.23 89.51 528 89.51c-220.01 0-399 178.99-399 399 0 13.8-11.19 25-25 25z" fill="#333333" p-id="18624"></path><path d="M118.7 571.09l54.24-69.21c12.21-15.58 2.05-38.47-17.7-39.87l-98.21-6.94C37.28 453.68 24 474.91 33.9 492.05l43.97 76.15c8.76 15.16 30.05 16.66 40.83 2.89z" fill="#333333" p-id="18625"></path><path d="M531.78 776.62c-4.28 0-8.62-1.1-12.58-3.41L283.14 635.43a24.992 24.992 0 0 1-12.4-21.59V346.35c0-13.81 11.19-25 25-25s25 11.19 25 25v253.13l223.67 130.54c11.92 6.96 15.95 22.27 8.99 34.19-4.65 7.97-13.02 12.41-21.62 12.41z" fill="#333333" p-id="18626"></path><path d="M531 776.61c-4.3 0-8.59-1.11-12.45-3.32A25.012 25.012 0 0 1 506 751.61V478.48c0-13.81 11.19-25 25-25s25 11.19 25 25v229.59l186.07-108.59V346.35c0-13.81 11.19-25 25-25s25 11.19 25 25v267.49c0 8.89-4.72 17.11-12.4 21.59L543.6 773.2a24.904 24.904 0 0 1-12.6 3.41z" fill="#333333" p-id="18627"></path><path d="M532.9 500.86c-4.3 0-8.61-1.11-12.47-3.33l-237.9-136.86a25.021 25.021 0 0 1-12.51-22.86c0.45-9.36 6.09-17.69 14.63-21.57l235.36-107a24.982 24.982 0 0 1 21 0.14l237.64 111.94c8.47 3.99 14 12.37 14.33 21.73 0.33 9.35-4.59 18.11-12.75 22.69l-235.1 131.93c-3.8 2.12-8.01 3.19-12.23 3.19zM349.67 341.61l183.39 105.5 180.4-101.23-183.28-86.33-180.51 82.06z" fill="#333333" p-id="18628"></path></svg>