<?xml version="1.0" standalone="no"?><!DOCTYPE svg PUBLIC "-//W3C//DTD SVG 1.1//EN" "http://www.w3.org/Graphics/SVG/1.1/DTD/svg11.dtd"><svg t="1643107215792" class="icon" viewBox="0 0 1072 1024" version="1.1" xmlns="http://www.w3.org/2000/svg" p-id="27114" xmlns:xlink="http://www.w3.org/1999/xlink" width="209.375" height="200"><defs><style type="text/css"></style></defs><path d="M640 512h-128v128h-85.333333v-128H298.666667v-85.333333h110.336L321.834667 339.498667l60.330666-60.330667 87.722667 87.68 87.168-87.125333L617.386667 340.053333 530.773333 426.666667H640v85.333333zM170.666667 170.666667v640h300.288v85.333333H129.066667C105.514667 896 85.333333 876.885333 85.333333 853.333333V128a42.666667 42.666667 0 0 1 42.666667-42.666667h682.666667a42.666667 42.666667 0 0 1 42.666666 42.666667v298.666667h-85.333333V170.666667H170.666667z" fill="#515151" p-id="27115"></path><path d="M865.834667 883.498667L746.666667 764.330667V640h85.333333v89.002667l94.165333 94.165333-60.330666 60.330667zM789.333333 512a234.666667 234.666667 0 1 0 0 469.333333 234.666667 234.666667 0 0 0 0-469.333333z" fill="#515151" p-id="27116"></path></svg>