<?xml version="1.0" standalone="no"?><!DOCTYPE svg PUBLIC "-//W3C//DTD SVG 1.1//EN" "http://www.w3.org/Graphics/SVG/1.1/DTD/svg11.dtd"><svg t="1643103150717" class="icon" viewBox="0 0 1024 1024" version="1.1" xmlns="http://www.w3.org/2000/svg" p-id="15938" xmlns:xlink="http://www.w3.org/1999/xlink" width="200" height="200"><defs><style type="text/css"></style></defs><path d="M1023.97524 577.799571c-0.955999 34.859974-30.433977 62.199954-65.305952 62.199954H847.999371v31.999976c0 43.727968-9.763993 85.167937-27.19998 122.289909l120.45591 120.455911c24.991981 24.993981 24.991981 65.515951 0 90.509933-24.995981 24.993981-65.517951 24.991981-90.511932 0l-109.471919-109.471919C691.771487 935.929305 628.701533 959.999288 559.999584 959.999288V471.99965c0-13.25399-10.745992-23.999982-23.999982-23.999982h-47.999964c-13.25399 0-23.999982 10.745992-23.999982 23.999982v487.999638c-68.701949 0-131.771902-24.069982-181.271866-64.215953l-109.471919 109.471919c-24.995981 24.993981-65.517951 24.991981-90.511932 0-24.991981-24.993981-24.991981-65.515951 0-90.509933l120.45591-120.455911C185.763862 757.167438 175.999869 715.727469 175.999869 671.999501v-31.999976H65.331952C30.459977 639.999525 0.981999 612.659545 0.026 577.799571-0.967999 541.631598 28.055979 511.99962 63.999953 511.99962h111.999916v-117.489913l-93.25593-93.255931c-24.991981-24.993981-24.991981-65.515951 0-90.509932 24.995981-24.993981 65.515951-24.993981 90.511932 0L282.50979 319.999763h458.97766l109.253919-109.253919c24.995981-24.993981 65.515951-24.993981 90.511932 0 24.991981 24.993981 24.991981 65.515951 0 90.509932L847.999371 394.509707V511.99962h111.999917c35.943973 0 64.967952 29.631978 63.975952 65.799951zM513.999619 0c-123.711908 0-223.999834 100.287926-223.999834 223.999834h447.999667C737.999452 100.287926 637.711527 0 513.999619 0z" p-id="15939"></path></svg>