<?xml version="1.0" standalone="no"?><!DOCTYPE svg PUBLIC "-//W3C//DTD SVG 1.1//EN" "http://www.w3.org/Graphics/SVG/1.1/DTD/svg11.dtd"><svg t="1644655013842" class="icon" viewBox="0 0 1024 1024" version="1.1" xmlns="http://www.w3.org/2000/svg" p-id="1436" xmlns:xlink="http://www.w3.org/1999/xlink" width="32" height="32"><defs><style type="text/css"></style></defs><path d="M639.488 176.64H268.8c-18.944 0-33.792 14.848-33.792 33.792s14.848 33.792 33.792 33.792h370.688c18.944 0 33.792-14.848 33.792-33.792s-14.848-33.792-33.792-33.792zM442.368 370.688c0-18.944-14.848-33.792-33.792-33.792H268.8c-18.944 0-33.792 14.848-33.792 33.792s14.848 33.792 33.792 33.792h139.264c18.944 0 34.304-15.36 34.304-33.792zM623.616 370.688c0-18.944-14.848-33.792-33.792-33.792H522.24c-18.944 0-33.792 14.848-33.792 33.792S503.296 404.48 522.24 404.48h67.584c18.432 0 33.792-15.36 33.792-33.792zM268.8 496.128c-18.944 0-33.792 14.848-33.792 33.792s14.848 33.792 33.792 33.792h90.624c18.944 0 34.304-15.36 34.304-33.792 0-18.944-14.848-33.792-33.792-33.792H268.8z" fill="#515151" p-id="1437"></path><path d="M807.936 12.288H216.064C158.72 12.288 112.64 58.368 112.64 115.2v793.088c0 56.832 46.08 103.424 103.424 103.424h412.16c18.944 0 33.792-14.848 33.792-33.792s-14.848-33.792-33.792-33.792H216.064c-19.968 0-35.328-15.36-35.328-35.328v-793.6c0-19.968 15.36-35.328 35.328-35.328h592.384c19.968 0 35.328 15.36 35.328 35.328v341.504c0 18.944 14.848 33.792 33.792 33.792s33.792-14.848 33.792-33.792V115.2c0-56.832-46.08-102.912-103.424-102.912z" fill="#515151" p-id="1438"></path><path d="M935.424 946.688c-29.184-80.384-91.648-142.848-168.448-173.056 35.328-30.72 57.856-75.776 57.856-125.952 0-91.648-74.752-166.4-166.4-166.4S491.52 556.032 491.52 647.68c0 50.176 22.528 95.232 57.856 125.952-53.248 20.992-100.352 57.856-133.632 106.496-9.728 13.824-6.144 33.28 7.68 42.496 13.824 9.728 33.28 6.144 42.496-7.68 43.52-62.976 115.712-100.864 192-100.864 97.792 0 185.856 61.952 219.648 153.6 4.608 12.288 16.384 20.48 28.672 20.48 3.584 0 7.168-0.512 10.752-2.048 15.872-5.632 24.064-23.552 18.432-39.424zM552.96 647.68c0-57.856 47.104-104.96 104.96-104.96s104.96 47.104 104.96 104.96-47.104 104.96-104.96 104.96-104.96-47.104-104.96-104.96z" fill="#515151" p-id="1439"></path></svg>