<?xml version="1.0" standalone="no"?><!DOCTYPE svg PUBLIC "-//W3C//DTD SVG 1.1//EN" "http://www.w3.org/Graphics/SVG/1.1/DTD/svg11.dtd"><svg t="1643115460198" class="icon" viewBox="0 0 1024 1024" version="1.1" xmlns="http://www.w3.org/2000/svg" p-id="19684" xmlns:xlink="http://www.w3.org/1999/xlink" width="200" height="200"><defs><style type="text/css"></style></defs><path d="M788.418 716.078l4.9-25.014C795.94 677.666 807.693 668 821.358 668h38.282c13.665 0 25.418 9.666 28.042 23.064l4.899 25.014a123.072 123.072 0 0 1 16.523 9.325l23.91-8.192c12.926-4.429 27.182 0.906 34.015 12.729l19.14 33.12c6.833 11.823 4.33 26.824-5.972 35.793l-17.241 15.01a124.76 124.76 0 0 1 0.453 22.668l16.788 14.616c10.302 8.97 12.805 23.97 5.973 35.793l-19.141 33.12c-6.833 11.823-21.089 17.158-34.015 12.729l-18.815-6.446a123.174 123.174 0 0 1-22.77 13.462l-3.747 19.131C885.059 972.334 873.306 982 859.64 982h-38.282c-13.665 0-25.418-9.666-28.042-23.064l-3.747-19.131a123.174 123.174 0 0 1-22.77-13.462l-18.815 6.446c-12.926 4.429-27.182-0.906-34.015-12.729l-19.14-33.12c-6.833-11.823-4.33-26.824 5.972-35.793l16.788-14.616a124.76 124.76 0 0 1 0.453-22.668l-17.24-15.01c-10.303-8.97-12.806-23.97-5.974-35.793l19.141-33.12c6.833-11.823 21.089-17.158 34.015-12.729l23.91 8.192a123.072 123.072 0 0 1 16.523-9.325z m51.553 154.742c25.364 0 46.02-20.633 46.02-45.98 0-25.348-20.638-45.986-46.02-45.986-25.381 0-46.037 20.62-46.037 45.986 0 25.365 20.656 45.98 46.037 45.98zM535.303 683.44c-68.164 29.559-149.587 79.827-149.587 151.458v16.51c0 30.922 12.414 54.376 31.663 72.36-20.93 0.84-42.075 1.262-63.01 1.262C202.052 925.03 35 905.99 35 822.17v-23.037c0-61.523 115.395-123.895 211.128-158.081 6.94-2.525 41.551-19.562 23.036-67.417-2.525-2.524-4.838-5.154-7.258-7.784C197.313 529.673 169.86 455 158.603 388.423c-14.405-4.52-28.192-19.667-34.605-40.386-8.732-28.393-0.317-56.057 18.932-61.84 2.737-0.84 5.578-1.05 8.415-0.945 0.317-15.987 1.263-25.768 1.263-25.768C152.608 164.615 231.184 87 327.228 87h52.492c96.04 0 174.622 77.615 174.622 172.484 0 0 0.95 9.781 1.262 25.768 2.842-0.106 5.684 0.105 8.415 0.945 1.58 0.528 2.842 1.262 4.21 2.001-54.066 27.976-92.358 81.93-97.62 145.032-21.668 22.826-29.766 58.898-18.615 95.186 2.736 8.83 6.63 17.138 11.151 24.712-3.47 2.63-6.73 5.47-10.412 7.89-2.842 3.052-5.683 6.205-8.626 9.258h0.206c-18.092 58.475 10.206 68.256 14.833 69.73a722.58 722.58 0 0 1 59.433 22.61c5.156 7.361 10.729 14.412 16.724 20.824z m199.766-4.099c-20.09 9.47-38.71 21.67-54.911 36.811a56.769 56.769 0 0 0-15.361 58.898c-21.04 4.31-38.816 20.19-44.394 42.172a209.745 209.745 0 0 0-6.418 49.745c-0.1 16.409 1.897 33.135 6 49.856 0.63 2.524 1.892 4.737 2.838 7.256-92.78-4.204-179.038-21.664-179.038-72.676v-16.51c0-44.068 82.681-88.769 151.268-113.274 4.944-1.786 29.772-13.986 16.513-48.277-2.309-2.208-4.416-4.627-6.519-6.94-45.132-26.396-64.698-78.777-72.69-125.892-10.312-3.259-20.306-13.985-24.828-28.815-6.207-20.297-0.211-40.176 13.57-44.279 1.896-0.523 3.999-0.106 5.996 0 0.211-11.672 0.845-19.034 0.845-19.034 0-67.945 56.38-123.579 125.178-123.579h37.663c68.899 0 125.178 55.634 125.178 123.579 0 0 0.633 7.362 0.845 19.034 1.997-0.106 3.998-0.629 5.995 0 13.782 4.103 19.878 23.982 13.57 44.279-4.526 14.72-14.52 25.556-24.826 28.815-7.676 45.44-26.085 96.026-67.954 123.161-2.213 2.419-4.42 4.838-6.735 7.257h0.212c-0.946 3.153-1.364 5.682-1.997 8.413z" p-id="19685"></path></svg>