<?xml version="1.0" standalone="no"?><!DOCTYPE svg PUBLIC "-//W3C//DTD SVG 1.1//EN" "http://www.w3.org/Graphics/SVG/1.1/DTD/svg11.dtd"><svg t="1643108188091" class="icon" viewBox="0 0 1024 1024" version="1.1" xmlns="http://www.w3.org/2000/svg" p-id="30966" xmlns:xlink="http://www.w3.org/1999/xlink" width="200" height="200"><defs><style type="text/css"></style></defs><path d="M494.9 590.9c127 0 233.2-105.8 233.2-232.3 0-130.4-106.2-234.2-233.2-234.2S261.6 228.3 261.6 354.8c-2 130.3 104.3 236.1 233.3 236.1z m68.5-54.9c17.1-23.1 37.8-61.6 47.3-109.8h62.4c-20.7 52.1-58.5 92.6-109.7 109.8z m130.4-185.2c0 15-1.8 28.1-3.7 41.1h-64.9c1.8-13 1.8-26.2 1.8-39.2 0-15 0-28.1-1.8-43.1h64.9c1.8 15.1 3.7 28.1 3.7 41.2z m-20.6-75.5h-62.4c-13.2-46-32.2-82.7-47.3-102.9 51.1 18.4 88.9 57.1 109.7 102.9zM508.6 158.7h1.8c12.7 14.9 43.6 53.7 59.9 116.6h-61.7V158.7z m0 157.8h72.8c1.9 15 3.8 28.1 1.9 43.1 0 15-1.9 26.2-1.9 39.2h-70.7v-82.3h-2.1z m0 116.6h61.7c-16.4 56.4-43.6 95.9-61.7 116.6V433.1z m-34.3 116.6c-18.2-20.4-47.3-59.2-61.7-116.6h61.7v116.6z m6.8-150.9h-71.7c-1.9-13-1.9-24.3-3.8-39.2 0-15 0-29.9 1.9-43.1h73.6v82.3z m0-240.1v116.6h-68.6c17.7-61.1 51-103.7 64.7-116.6h3.9z m-54.8 13.7c-15.2 21.2-35.9 57.8-47.3 109.8h-62.4c22.6-52 60.4-92.5 109.7-109.8zM302.8 350.7c0-15 1.8-28.1 3.7-41.1h64.9c-1.8 15-1.8 28.1-1.8 43.1s1.8 26.2 1.8 39.2h-66.7c-1.9-11.2-1.9-26.3-1.9-41.2z m70.1 82.4c13 48.2 29.8 86.6 46.5 109.8-48.4-19.3-89.3-57.8-109.8-109.8h63.3z m533.5 220.6c13.3 7.7 5.6 17.1-7.5 30.3-90.7 51.2-342.1 191.5-366.7 206.7-26.5 15.2-28.3 7.6-51.1 0-39.8-15.1-126.7-47.3-164.4-62.6-28.3-9.4-30.2-9.4-37.8-5.7-28.3 11.3-68 26.6-68 26.6L110.7 668.9s104-43.7 154.9-60.6c39.6-19 64.2-17.1 175.7 30.3 17.1 5.7 30.2 9.4 47.3 9.4h156.9c11.4 0 71.9 47.5 49.2 55-111.5 36-175.7 60.7-200.3 56.9-71.9-9.6-134.2-22.8-134.2-22.8s128.5 43.6 145.5 39.8c49.2-15.2 154.9-47.5 207.9-68.6 13.3-7.6 13.3-17-5.6-37.9-18.9-24.6-45.4-41.7-54.8-41.7h-69.9s102-34.1 119-37.9c11.3-1.9 51.1 15.2 32.1 22.8 24.6-5.7 32.1-7.6 47.3-9.4 13.2-3.8 54.8 22.8 37.8 32.2 5.6-1.9 20.7-3.8 41.5-5.7 13.2-1.7 39.7 17.4 45.4 23z" fill="#515151" p-id="30967"></path></svg>