<?xml version="1.0" standalone="no"?><!DOCTYPE svg PUBLIC "-//W3C//DTD SVG 1.1//EN" "http://www.w3.org/Graphics/SVG/1.1/DTD/svg11.dtd"><svg t="1643114402728" class="icon" viewBox="0 0 1059 1024" version="1.1" xmlns="http://www.w3.org/2000/svg" p-id="56020" xmlns:xlink="http://www.w3.org/1999/xlink" width="206.8359375" height="200"><defs><style type="text/css"></style></defs><path d="M358.4 607.573333h-81.92c-30.72 0-37.546667 6.826667-37.546667 40.96v85.333334c0 34.133333 6.826667 40.96 37.546667 40.96h81.92c30.72 0 37.546667-6.826667 37.546667-40.96V648.533333c3.413333-34.133333-3.413333-40.96-37.546667-40.96z" p-id="56021"></path><path d="M894.293333 358.4l81.92 54.613333 27.306667 17.066667c17.066667 10.24 37.546667 3.413333 47.786667-13.653333 13.653333-17.066667 10.24-37.546667-6.826667-51.2l-488.106667-351.573334c-3.413333-3.413333-6.826667-6.826667-13.653333-10.24-17.066667-6.826667-37.546667-3.413333-44.373333 13.653334l-484.693334 351.573333c-13.653333 13.653333-17.066667 37.546667-6.826666 51.2 10.24 17.066667 30.72 23.893333 47.786666 13.653333l34.133334-23.893333v576.853333c0 20.48 17.066667 37.546667 37.546666 37.546667s37.546667-17.066667 37.546667-37.546667v-631.466666l361.813333-262.826667 368.64 266.24z" p-id="56022"></path><path d="M358.4 819.2h-81.92c-30.72 0-37.546667 6.826667-37.546667 40.96v85.333333c0 34.133333 6.826667 40.96 37.546667 40.96h81.92c30.72 0 37.546667-6.826667 37.546667-40.96v-85.333333c3.413333-34.133333-3.413333-40.96-37.546667-40.96zM358.4 395.946667h-81.92c-30.72 0-37.546667 6.826667-37.546667 40.96v85.333333c0 34.133333 6.826667 40.96 37.546667 40.96h81.92c30.72 0 37.546667-6.826667 37.546667-40.96v-85.333333c3.413333-34.133333-3.413333-40.96-37.546667-40.96zM921.6 559.786667c-10.24-10.24-23.893333-17.066667-37.546667-17.066667-13.653333 0-27.306667 6.826667-37.546666 17.066667s-17.066667 23.893333-17.066667 40.96v40.96h-119.466667v-40.96c0-13.653333-6.826667-27.306667-17.066666-40.96-10.24-10.24-23.893333-17.066667-37.546667-17.066667-13.653333 0-27.306667 6.826667-37.546667 17.066667l-116.053333 126.293333c-13.653333 13.653333-20.48 34.133333-20.48 51.2 0 20.48 10.24 37.546667 23.893333 51.2l116.053334 129.706667c10.24 10.24 23.893333 17.066667 37.546666 17.066666 27.306667 0 51.2-20.48 51.2-51.2v-51.2h116.053334v51.2c0 27.306667 20.48 51.2 47.786666 51.2h3.413334c13.653333 0 27.306667-6.826667 37.546666-17.066666l116.053334-129.706667c13.653333-13.653333 23.893333-30.72 27.306666-51.2 0-20.48-6.826667-37.546667-20.48-51.2l-116.053333-126.293333z m71.68 197.973333l-102.4 112.64v-54.613333c0-17.066667-13.653333-30.72-27.306667-30.72-44.373333-3.413333-136.533333-3.413333-180.906666 0-17.066667 0-27.306667 13.653333-27.306667 30.72v54.613333l-102.4-112.64c-3.413333-3.413333-6.826667-6.826667-6.826667-10.24s0-3.413333 3.413334-6.826667l3.413333-3.413333 105.813333-116.053333v51.2c3.413333 13.653333 13.653333 23.893333 27.306667 30.72h174.08c13.653333-6.826667 23.893333-17.066667 27.306667-30.72v-51.2l105.813333 116.053333 3.413333 3.413333c3.413333 0 3.413333 3.413333 3.413334 6.826667-3.413333 3.413333-3.413333 6.826667-6.826667 10.24z" p-id="56023"></path></svg>