<?xml version="1.0" standalone="no"?><!DOCTYPE svg PUBLIC "-//W3C//DTD SVG 1.1//EN" "http://www.w3.org/Graphics/SVG/1.1/DTD/svg11.dtd"><svg t="1643092631336" class="icon" viewBox="0 0 1024 1024" version="1.1" xmlns="http://www.w3.org/2000/svg" p-id="10332" xmlns:xlink="http://www.w3.org/1999/xlink" width="200" height="200"><defs><style type="text/css"></style></defs><path d="M936.064 732.032l-52.48 0c0.256-1.792 0.512-3.584 0.512-5.376L884.096 270.208c0-25.088-20.352-45.44-45.44-45.44L210.688 224.768c-25.088 0-45.44 20.352-45.44 45.44l0 456.32c0 1.792 0.384 3.584 0.512 5.376l-52.48 0c-19.456 0-35.072 15.744-35.072 35.072 0 19.456 15.744 35.072 35.072 35.072l822.528 0c19.456 0 35.072-15.744 35.072-35.072C971.136 747.776 955.392 732.032 936.064 732.032zM475.136 335.872l99.2 0 0 297.6-99.2 0L475.136 335.872zM432.256 633.472l-99.2 0L333.056 449.536l99.2 0L432.256 633.472zM587.264 780.8l-125.056 0 0-17.664 125.056 0L587.264 780.8zM716.416 633.472l-99.2 0L617.216 417.28l99.2 0L716.416 633.472z" p-id="10333"></path></svg>