<?xml version="1.0" standalone="no"?><!DOCTYPE svg PUBLIC "-//W3C//DTD SVG 1.1//EN" "http://www.w3.org/Graphics/SVG/1.1/DTD/svg11.dtd"><svg t="1643105917195" class="icon" viewBox="0 0 1026 1024" version="1.1" xmlns="http://www.w3.org/2000/svg" p-id="25309" xmlns:xlink="http://www.w3.org/1999/xlink" width="200.390625" height="200"><defs><style type="text/css"></style></defs><path d="M792.74 263.48h34.56c2.52 0 9.18 3.18 10.8 5.28l151.8 190.68c0.96 1.14 3.06 7.08 3.06 8.64V701c0 11.88-4.86 22.74-12.72 30.66-7.92 7.86-18.72 12.72-30.72 12.72H896.9c-6.48 53.7-50.76 95.1-104.16 98.76V815.3c43.14-3.9 77.28-40.56 77.28-84.66 0-44.22-34.08-80.64-77.28-84.54v-28.02c53.34 3.72 97.44 44.94 104.1 98.4h52.68c4.38 0 8.28-1.68 11.1-4.5 2.76-2.88 4.56-6.72 4.56-11.1V532.16H792.74v-27.78h172.44v-31.62l-77.1-96.96h-95.34v-27.72h73.2l-45.36-56.88h-27.84v-27.72zM344.48 117.86a212.46 212.46 0 0 1 46.74 35.34c6.78 6.78 13.02 13.92 18.84 21.48H564.5c15.3 0 29.34 6.3 39.36 16.32v0.06c10.2 10.14 16.38 24 16.38 39.36v33h172.5v27.78h-172.5v425.28h53.04c6.96-55.98 55.14-98.64 111.84-98.64 2.52 0 4.98 0.06 7.62 0.18v27.96c-2.58-0.3-5.1-0.48-7.62-0.48-46.62 0-84.96 38.34-84.96 84.96 0 46.74 38.22 84.96 84.96 84.96 2.52 0 5.04-0.06 7.62-0.36v27.9c-2.64 0.12-5.1 0.24-7.62 0.24-56.7 0-105.06-42.96-111.96-98.94H392.12c-4.02 32.76-22.02 60.96-47.64 78.78v-37.02c12.84-14.88 20.7-34.26 20.7-55.5 0-21.12-7.8-40.5-20.7-55.44v-36.96c25.5 17.76 43.5 45.78 47.52 78.36h200.4v-486c0-7.74-3.18-14.7-8.28-19.8v0.06c-4.98-5.16-12-8.22-19.62-8.22H428c15.9 29.64 25.02 63.54 25.02 99.48 0 57.96-23.64 110.64-61.74 148.74-13.8 13.86-29.58 25.8-46.74 35.4V453.5c9.72-6.6 18.84-14.04 27.12-22.44C404.72 398 425.24 352.28 425.24 302c0-50.34-20.46-96-53.64-129.12v-0.12c-8.28-8.28-17.4-15.78-27.12-22.44v-32.46z m448.26 230.28H760.1c-24.54 0-44.7 20.16-44.7 44.7v94.98c0 24.24 20.1 44.34 44.22 44.34h33.12v-27.78h-33.12c-8.88 0-16.44-7.44-16.44-16.5v-95.04c0-9.24 7.8-16.98 16.98-16.98h32.58v-27.72zM242.54 91.46c36.9 0 71.7 9.6 101.94 26.46v32.46c-29.16-19.62-64.2-31.14-101.94-31.14-11.4 0-22.62 1.02-33.48 3.06V94.1c10.92-1.74 22.08-2.64 33.48-2.64z m101.94 731.58c-18.36 12.78-40.5 20.28-64.26 20.28-26.82 0-51.6-9.48-71.1-25.44v-41.04c15.18 23.28 41.4 38.7 71.1 38.7 25.62 0 48.66-11.4 64.26-29.52v37.02z m0-369.54v32.52c-30.24 16.86-64.98 26.4-101.94 26.4-11.4 0-22.56-0.9-33.48-2.64v-28.2c10.8 2.04 22.02 3.12 33.48 3.12 37.68 0 72.78-11.58 101.94-31.2z m0 184.62v37.02c-15.6-18.12-38.64-29.58-64.26-29.58-29.64 0-55.92 15.54-71.1 38.82v-41.04c19.5-15.96 44.34-25.44 71.1-25.44 23.76 0 45.9 7.5 64.26 20.22zM209.12 348.14v-36.3l19.5-16.38V175.52c0-19.86 27.78-19.86 27.78 0v126.42c0 2.46-3 9-4.92 10.68l-42.36 35.52z m0 469.74c-21.96-17.94-37.08-43.86-40.74-73.62h-43.86c-30.66 0-55.74-25.2-55.74-55.86V420.5C45.62 386.72 32 345.86 32 301.94c0-57.96 23.64-110.64 61.74-148.8 30.66-30.54 70.74-51.9 115.38-59.1v28.26c-37.02 6.84-70.14 24.96-95.76 50.52-33.06 33.12-53.58 78.84-53.58 129.12s20.46 96 53.64 129.06h-0.12c25.62 25.62 58.74 43.68 95.76 50.52v28.14c-43.32-6.84-82.26-27.12-112.56-56.4v235.2c0 15.42 12.54 28.02 27.96 28.02h43.92c3.72-29.52 18.84-55.38 40.68-73.2v41.16c-8.76 13.26-13.8 29.1-13.8 46.14 0 17.1 5.04 33.06 13.8 46.32l0.06 40.98z m0-506.04l-21.96 18.42-19.62 16.5c-15.12 12.72 2.88 33.96 17.94 21.24l23.64-19.86v-36.3z m0 0z" p-id="25310"></path></svg>