<?xml version="1.0" standalone="no"?><!DOCTYPE svg PUBLIC "-//W3C//DTD SVG 1.1//EN" "http://www.w3.org/Graphics/SVG/1.1/DTD/svg11.dtd"><svg t="1643103904323" class="icon" viewBox="0 0 1024 1024" version="1.1" xmlns="http://www.w3.org/2000/svg" p-id="20129" xmlns:xlink="http://www.w3.org/1999/xlink" width="200" height="200"><defs><style type="text/css"></style></defs><path d="M969.646105 969.645933v-101.533305c0-12.11053 14.06199-22.212204 26.344707-22.212204s28.009188 9.929487 28.009188 22.212204v133.674996a22.212204 22.212204 0 0 1-6.485734 15.611678 21.810433 21.810433 0 0 1-15.669074 6.54313h-133.732392c-12.11053 0-22.212204-15.72647-22.212204-28.009188s9.929487-26.344707 22.212204-26.344707zM969.646105 60.093482h-101.533305c-12.11053 0-22.212204-14.06199-22.212204-26.344707S855.887479 0 868.1128 0h133.674996a22.212204 22.212204 0 0 1 15.611678 6.485734 21.867829 21.867829 0 0 1 6.54313 15.669074v133.732392c0 12.11053-15.72647 22.212204-28.009187 22.212204s-26.344707-9.929487-26.344708-22.212204zM6.485906 1017.456698A22.154808 22.154808 0 0 1 0.000172 1001.84502v-133.732392c0-12.225322 15.611678-22.212204 28.009188-22.212204s26.344707 10.101674 26.344707 22.212204v101.533305h101.533305c12.225322 0 22.212204 14.004594 22.212204 26.344707s-10.101674 28.009188-22.212204 28.009188H22.212376a22.097412 22.097412 0 0 1-15.669074-6.428338zM6.543302 6.485734A22.154808 22.154808 0 0 1 22.212376 0h133.674996C168.112694 0 177.927388 21.351266 177.927388 33.748775s-10.101674 26.344707-22.212204 26.344707H54.354067v95.793718C54.354067 168.112521 40.177286 177.927216 28.00936 177.927216S0.000172 167.99773 0.000172 155.8872V22.212204a22.097412 22.097412 0 0 1 6.428338-15.669074zM1001.7304 489.759012h-89.594963A400.738008 400.738008 0 0 0 534.298384 111.921959V22.326996a22.2696 22.2696 0 0 0-44.5392 0V111.921959A400.738008 400.738008 0 0 0 111.922131 489.759012H22.327168a22.2696 22.2696 0 0 0 0 44.5392H111.922131a400.795404 400.795404 0 0 0 377.837053 377.837053v89.594963a22.2696 22.2696 0 1 0 44.5392 0v-89.594963a400.795404 400.795404 0 0 0 377.837053-377.837053h89.594963a22.2696 22.2696 0 0 0 0-44.5392zM512.028784 833.388123a321.416907 321.416907 0 1 1 321.416907-321.416907 321.416907 321.416907 0 0 1-321.416907 321.416907z" p-id="20130"></path><path d="M512.028784 356.198808a155.829804 155.829804 0 1 0 155.829804 155.829804 155.829804 155.829804 0 0 0-155.829804-155.829804z m0 233.371633a77.541829 77.541829 0 0 1 0-154.968866 77.541829 77.541829 0 0 1 0 154.968866z" p-id="20131"></path></svg>