<?xml version="1.0" standalone="no"?><!DOCTYPE svg PUBLIC "-//W3C//DTD SVG 1.1//EN" "http://www.w3.org/Graphics/SVG/1.1/DTD/svg11.dtd"><svg t="1643105368825" class="icon" viewBox="0 0 1024 1024" version="1.1" xmlns="http://www.w3.org/2000/svg" p-id="21423" xmlns:xlink="http://www.w3.org/1999/xlink" width="200" height="200"><defs><style type="text/css"></style></defs><path d="M820.5 928.2H172.3c-28.7 0-55.9-11.5-76-32-20.1-20.1-32-47.8-32-76V280L496.4 63.9l54 54L118.2 334h756.3L550.4 226l54-54 324.1 108v540.2c0 28.7-11.5 55.9-32 76-20 20.5-47.3 32-76 32z m-27.2-270.1H577.2c-14.8 0-26.8 12.4-26.8 27.2 0 14.8 12.4 26.8 26.8 26.8h216.1c14.8 0 27.2-12.4 27.2-26.8 0-15.2-12.4-27.2-27.2-27.2z m0 108.1H415.1c-14.8 0-26.8 12.4-26.8 26.8 0 14.8 12.4 27.2 26.8 27.2h378.2c14.8 0 27.2-12.4 27.2-27.2 0-14.9-12.4-26.8-27.2-26.8z" p-id="21424"></path></svg>