<?xml version="1.0" standalone="no"?><!DOCTYPE svg PUBLIC "-//W3C//DTD SVG 1.1//EN" "http://www.w3.org/Graphics/SVG/1.1/DTD/svg11.dtd"><svg t="1643112440300" class="icon" viewBox="0 0 1024 1024" version="1.1" xmlns="http://www.w3.org/2000/svg" p-id="45677" xmlns:xlink="http://www.w3.org/1999/xlink" width="200" height="200"><defs><style type="text/css"></style></defs><path d="M945 880.16l-223.7-223.7a7 7 0 0 0-9.9 0l-54.89 54.89a7 7 0 0 0 0 9.9L880.16 945a7 7 0 0 0 9.9 0L945 890.06a7 7 0 0 0 0-9.9z" fill="#EF6A6A" p-id="45678"></path><path d="M614.86 169.28a315.07 315.07 0 0 0-445.58 445.58 315.07 315.07 0 0 0 445.58-445.58z" fill="#C5EAFF" p-id="45679"></path><path d="M954.14 871l-223.7-223.7a20 20 0 0 0-28.29 0l-7.83 7.83-51.49-51.49c109-128.9 102.73-322-18.78-443.52a328.07 328.07 0 0 0-464 0C32 288.21 32 495.93 160.09 624.05a328.07 328.07 0 0 0 443.52 18.78l51.49 51.49-7.83 7.83a20 20 0 0 0 0 28.29L871 954.14a20 20 0 0 0 28.28 0l54.89-54.89a20 20 0 0 0-0.03-28.25zM392.07 694.14A301.13 301.13 0 1 1 505.75 672a301 301 0 0 1-113.68 22.14z m493 237.37L669.9 716.3l46.4-46.4 215.21 215.21z" fill="#512C56" p-id="45680"></path><path d="M567.19 217A247.67 247.67 0 0 0 217 217c-96.71 96.72-96.71 253.52 0 350.24a247.67 247.67 0 0 0 350.24 0c96.66-96.77 96.66-253.57-0.05-350.24zM548.8 548.8a220.78 220.78 0 1 1 48.7-73.31 220.23 220.23 0 0 1-48.7 73.31z" fill="#512C56" p-id="45681"></path></svg>