<?xml version="1.0" standalone="no"?><!DOCTYPE svg PUBLIC "-//W3C//DTD SVG 1.1//EN" "http://www.w3.org/Graphics/SVG/1.1/DTD/svg11.dtd"><svg t="1643103672995" class="icon" viewBox="0 0 1024 1024" version="1.1" xmlns="http://www.w3.org/2000/svg" p-id="18428" xmlns:xlink="http://www.w3.org/1999/xlink" width="200" height="200"><defs><style type="text/css"></style></defs><path d="M989.184 1011.2H50.176c-14.336 0-25.6-11.264-25.6-25.6V81.92c0-14.336 11.264-25.6 25.6-25.6h939.008c14.336 0 25.6 11.264 25.6 25.6v903.68c0 14.336-11.264 25.6-25.6 25.6z m-913.408-51.2h887.808V107.52H75.776v852.48z" p-id="18429"></path><path d="M987.648 307.2H48.64c-14.336 0-25.6-11.264-25.6-25.6V81.92c0-14.336 11.264-25.6 25.6-25.6h939.008c14.336 0 25.6 11.264 25.6 25.6v199.68c0 14.336-11.264 25.6-25.6 25.6zM74.24 256h887.808V107.52H74.24v148.48zM289.28 653.312c-6.144 0-11.776-2.048-16.896-6.144-10.752-9.216-11.776-25.6-2.56-36.352l141.312-160.768c4.608-5.12 10.752-8.192 17.408-8.704 6.656-0.512 13.312 2.048 18.432 6.656l113.152 100.352 143.36-152.064c9.728-10.24 26.112-10.752 36.352-1.024 10.24 9.728 10.752 26.112 1.024 36.352l-160.256 169.984c-9.728 10.24-25.088 10.752-35.84 1.536L432.64 503.296l-124.416 141.312c-4.608 5.632-11.776 8.704-18.944 8.704zM216.064 876.032c-13.824 0-25.6-11.264-25.6-25.6s11.264-25.6 25.6-25.6L824.32 819.2c13.824 0 25.6 11.264 25.6 25.6s-11.264 25.6-25.6 25.6l-608.256 5.632zM820.224 741.376H495.616c-14.336 0-25.6-11.264-25.6-25.6s11.264-25.6 25.6-25.6h324.608c14.336 0 25.6 11.264 25.6 25.6s-11.264 25.6-25.6 25.6z" p-id="18430"></path></svg>