<?xml version="1.0" standalone="no"?><!DOCTYPE svg PUBLIC "-//W3C//DTD SVG 1.1//EN" "http://www.w3.org/Graphics/SVG/1.1/DTD/svg11.dtd"><svg t="1643103415549" class="icon" viewBox="0 0 1024 1024" version="1.1" xmlns="http://www.w3.org/2000/svg" p-id="18108" xmlns:xlink="http://www.w3.org/1999/xlink" width="200" height="200"><defs><style type="text/css"></style></defs><path d="M512 654.4c-162.6 0-294.8-132.3-294.8-294.8S349.4 64.8 512 64.8 806.8 197 806.8 359.6 674.6 654.4 512 654.4z m0-439.7c-79.9 0-144.9 65-144.9 144.9s65 144.9 144.9 144.9 144.9-65 144.9-144.9-65-144.9-144.9-144.9z" fill="#666666" p-id="18109"></path><path d="M862.2 959.2c-36.8 0-68.9-27.1-74.1-64.6-19-136.8-137.7-240-276.1-240s-257 103.2-276.1 240c-5.7 41-43.5 69.6-84.6 63.9-41-5.7-69.6-43.6-63.9-84.6 14.2-101.5 64.6-194.9 142-262.8 78.2-68.6 178.5-106.4 282.6-106.4s204.5 37.8 282.6 106.4C872 679 922.4 772.4 936.5 873.9c5.7 41-22.9 78.9-63.9 84.6-3.5 0.5-7 0.7-10.4 0.7z" fill="#666666" p-id="18110"></path></svg>