<?xml version="1.0" standalone="no"?><!DOCTYPE svg PUBLIC "-//W3C//DTD SVG 1.1//EN" "http://www.w3.org/Graphics/SVG/1.1/DTD/svg11.dtd"><svg t="1643115160876" class="icon" viewBox="0 0 1152 1024" version="1.1" xmlns="http://www.w3.org/2000/svg" p-id="13471" xmlns:xlink="http://www.w3.org/1999/xlink" width="225" height="200"><defs><style type="text/css"></style></defs><path d="M251.22 330.96a98.14 98.14 0 1 0 98.12 98.12 98.16 98.16 0 0 0-98.12-98.12zM172.3 851.68h157.88V570.64H172.3z m302.92-423.2c0-40-20-45.06-37.48-45.06h-28.1v91.58h28.1c19.5 0 37.48-5.62 37.48-46.52z m403.38 92v-182.62h45.5v137.14h67.38C973 226.16 777.22 172.38 599.34 172.38h-189.66V338h28c51.2 0 83 34.7 83 90.52 0 57.62-31.04 92-83 92h-28v331.24h189.66c289.22 0 389.88-134.32 393.44-331.28z m-219.5 0H546.6V338h108.86v45.46H592v21.16h60V450h-60v25h67.02z m149.32 0l-10.32-35.34h-59.48l-10.36 35.34h-47.32L736 337.84h64.7l55.06 182.68zM599.3 64H64v896h535.3c323.7 0 502-159.46 502-449.04C1101.24 344 1036 64 599.3 64z m0 853.84H106.14V106.14h493.16c284.2 0 459.8 129.22 459.8 404.82 0 268.18-162 406.88-459.8 406.88z m167.72-529.7L752 439.76h32.8l-15.04-51.62z" p-id="13472"></path></svg>