<?xml version="1.0" standalone="no"?><!DOCTYPE svg PUBLIC "-//W3C//DTD SVG 1.1//EN" "http://www.w3.org/Graphics/SVG/1.1/DTD/svg11.dtd"><svg t="1643105973447" class="icon" viewBox="0 0 1024 1024" version="1.1" xmlns="http://www.w3.org/2000/svg" p-id="25485" xmlns:xlink="http://www.w3.org/1999/xlink" width="200" height="200"><defs><style type="text/css"></style></defs><path d="M652.896 478.976a256 256 0 1 0-281.792 0A522.944 522.944 0 0 0 6.176 982.56a32 32 0 0 0 32 32l0.448-0.096 0.448 0.096H984.96l0.448-0.096 0.448 0.096a32 32 0 0 0 32-32 522.944 522.944 0 0 0-364.928-503.584z m299.584 471.584H585.6l24.672-44.512-17.472-282.624h1.088l20.992-88.448a456.16 456.16 0 0 1 337.6 415.584z m-440.8 0l-32.928-59.2 15.648-250.432h35.36l15.488 250.432-32.832 59.2z m-39.264-426.144h79.168l-8.288 35.008h-62.592zM320 265.44a192 192 0 1 1 192 192 192.224 192.224 0 0 1-192-192z m89.12 269.536l20.992 88.448h1.28l-17.664 282.624 24.736 44.48H71.52a456.16 456.16 0 0 1 337.6-415.552z" fill="#575869" p-id="25486"></path></svg>