<?xml version="1.0" standalone="no"?><!DOCTYPE svg PUBLIC "-//W3C//DTD SVG 1.1//EN" "http://www.w3.org/Graphics/SVG/1.1/DTD/svg11.dtd"><svg t="1643105994409" class="icon" viewBox="0 0 1024 1024" version="1.1" xmlns="http://www.w3.org/2000/svg" p-id="25696" xmlns:xlink="http://www.w3.org/1999/xlink" width="200" height="200"><defs><style type="text/css"></style></defs><path d="M565.475556 853.333333H170.666667l10.24-548.408889h128.568889v85.333334a22.755556 22.755556 0 0 0 45.511111 0V306.631111h217.884444v85.333333a22.755556 22.755556 0 0 0 45.511111 0v-85.333333h128.568889v135.395556a22.755556 22.755556 0 0 0 22.755556 22.755555 23.893333 23.893333 0 0 0 22.755555-23.324444L791.893333 284.444444a22.186667 22.186667 0 0 0-22.755555-22.186666h-150.755556V198.542222a154.737778 154.737778 0 1 0-308.906666 0v62.577778H158.72a22.755556 22.755556 0 0 0-22.755556 22.186667l-11.377777 593.92a25.031111 25.031111 0 0 0 6.257777 16.497777 25.6 25.6 0 0 0 16.497778 6.826667h418.133334a22.755556 22.755556 0 1 0 0-45.511111zM354.986667 198.542222a109.226667 109.226667 0 1 1 217.884444 0v62.577778H354.986667z" p-id="25697"></path><path d="M771.982222 525.653333a199.68 199.68 0 1 0 199.111111 199.68 199.68 199.68 0 0 0-199.111111-199.68z m0 353.28a154.168889 154.168889 0 1 1 153.6-153.6 153.6 153.6 0 0 1-153.6 153.6z" p-id="25698"></path><path d="M771.982222 686.08a22.755556 22.755556 0 0 0-22.755555 22.755556v113.777777a22.755556 22.755556 0 1 0 45.511111 0v-113.777777a22.755556 22.755556 0 0 0-22.755556-22.755556zM771.982222 610.986667a28.444444 28.444444 0 0 0 0 56.888889 28.444444 28.444444 0 0 0 0-56.888889z" p-id="25699"></path></svg>