<?xml version="1.0" standalone="no"?><!DOCTYPE svg PUBLIC "-//W3C//DTD SVG 1.1//EN" "http://www.w3.org/Graphics/SVG/1.1/DTD/svg11.dtd"><svg t="1643106289733" class="icon" viewBox="0 0 1024 1024" version="1.1" xmlns="http://www.w3.org/2000/svg" p-id="26052" xmlns:xlink="http://www.w3.org/1999/xlink" width="200" height="200"><defs><style type="text/css"></style></defs><path d="M197.056 478.24H129.568a33.6 33.6 0 0 0 0 67.136h67.488a33.536 33.536 0 1 0 0-67.136z m697.376 0H364.672a33.6 33.6 0 0 0 0 67.136h529.76a33.536 33.536 0 1 0 0-67.136zM197.056 747.136H129.568a33.568 33.568 0 1 0 0 67.104h67.488a33.536 33.536 0 1 0 0-67.104z m697.376 0H364.672a33.6 33.6 0 0 0 0 67.136h529.76a33.536 33.536 0 1 0 0-67.136zM197.056 209.728H129.568a33.6 33.6 0 0 0 0 67.168h67.488a33.6 33.6 0 0 0 0-67.168z m167.616 67.168h529.76a33.6 33.6 0 0 0 0-67.168H364.672a33.6 33.6 0 0 0 0 67.168z" p-id="26053"></path></svg>