<?xml version="1.0" standalone="no"?><!DOCTYPE svg PUBLIC "-//W3C//DTD SVG 1.1//EN" "http://www.w3.org/Graphics/SVG/1.1/DTD/svg11.dtd"><svg t="1643092916719" class="icon" viewBox="0 0 1024 1024" version="1.1" xmlns="http://www.w3.org/2000/svg" p-id="11646" xmlns:xlink="http://www.w3.org/1999/xlink" width="200" height="200"><defs><style type="text/css"></style></defs><path d="M472.96 421.12c217.92 0 369.6-54.08 369.6-120.96V227.52c0-66.56-150.08-120.96-369.6-120.96S128 161.28 128 227.52v72.64c0 66.88 127.04 120.96 344.96 120.96z m-38.08 228.48c0-63.04 22.72-123.84 64-171.52h-14.4c-183.04 0-286.4-36.48-338.56-86.08-10.88 9.28-17.6 22.72-17.92 37.12v100.16c0 60.8 112.64 112.32 306.88 120.32z m7.68 85.12c-156.48-5.44-249.92-39.36-296-85.12-11.2 9.28-17.92 22.72-18.56 37.12v100.16c0 65.6 133.44 120 361.6 120h66.56a268.8 268.8 0 0 1-113.6-172.16zM699.52 449.6c-126.08 0-228.48 102.4-228.48 228.48s102.4 228.48 228.48 228.48S928 804.48 928 678.08a229.024 229.024 0 0 0-228.48-228.48z m87.36 254.72h-111.36l26.56 26.56c10.24 10.24 10.24 26.56 0 36.8-10.24 10.24-26.56 10.24-36.8 0l-70.4-70.4a26.08 26.08 0 0 1 0-38.08l70.72-70.72c10.24-10.24 26.56-10.24 36.8 0 10.24 10.24 10.24 26.56 0 36.8l-26.56 26.56h111.36c14.08 0 25.6 11.84 25.6 25.92-0.32 14.72-11.84 26.56-25.92 26.56z" p-id="11647"></path></svg>