<?xml version="1.0" standalone="no"?><!DOCTYPE svg PUBLIC "-//W3C//DTD SVG 1.1//EN" "http://www.w3.org/Graphics/SVG/1.1/DTD/svg11.dtd"><svg t="1643105405652" class="icon" viewBox="0 0 1024 1024" version="1.1" xmlns="http://www.w3.org/2000/svg" p-id="22008" xmlns:xlink="http://www.w3.org/1999/xlink" width="200" height="200"><defs><style type="text/css"></style></defs><path d="M842.726957 851.603514a92.824783 92.824783 0 0 0-31.083528-20.864286 95.805395 95.805395 0 0 0-37.896357-7.664432 94.102188 94.102188 0 0 0-67.702479 28.528718 111.134259 111.134259 0 0 0-20.864286 32.360933 103.044025 103.044025 0 0 0 0 77.921722 108.153646 108.153646 0 0 0 20.864286 32.360933 92.398981 92.398981 0 0 0 105.598836 21.71589 104.747232 104.747232 0 0 0 31.083528-21.71589 111.134259 111.134259 0 0 0 20.864286-32.360933 98.360206 98.360206 0 0 0 7.664432-38.74796 100.489215 100.489215 0 0 0-7.664432-39.173762 111.134259 111.134259 0 0 0-20.864286-32.360933zM410.963975 847.345496a94.52799 94.52799 0 0 0-68.128281-28.528718 96.231197 96.231197 0 0 0-38.322158 7.664432 93.250585 93.250585 0 0 0-30.657726 20.864286 109.856853 109.856853 0 0 0-20.438485 32.360934 98.360206 98.360206 0 0 0-7.664431 38.74796 100.489215 100.489215 0 0 0 7.664431 39.173761 106.876241 106.876241 0 0 0 20.438485 32.360934 111.134259 111.134259 0 0 0 30.657726 21.715889 96.656999 96.656999 0 0 0 38.322158 8.090234 94.102188 94.102188 0 0 0 37.470555-8.090234 111.134259 111.134259 0 0 0 30.657726-21.715889 109.856853 109.856853 0 0 0 20.438485-32.360934 100.489215 100.489215 0 0 0 7.664431-39.173761 98.360206 98.360206 0 0 0-7.664431-38.74796 109.856853 109.856853 0 0 0-20.438485-32.360934zM656.225787 24.2707A70.25729 70.25729 0 0 0 603.852171 0 73.237902 73.237902 0 0 0 553.607564 25.548105L414.796191 170.320703h378.963564zM689.864126 388.331202v-6.812828a52.799418 52.799418 0 0 0 0-6.812828 37.470555 37.470555 0 0 0-2.129009-6.387026 85.160351 85.160351 0 0 0-159.249857 0 37.470555 37.470555 0 0 0-2.129009 6.387026V383.221581a42.580176 42.580176 0 0 0 0 6.812828v2.129009a30.231925 30.231925 0 0 0 0 5.961225v8.090233a9.367639 9.367639 0 0 1 0 3.406414v8.516035a85.160351 85.160351 0 0 0 61.315453 62.592858 95.379594 95.379594 0 0 0 22.141692 2.554811 98.360206 98.360206 0 0 0 22.141691-2.554811 85.160351 85.160351 0 0 0 61.315453-62.592858 12.348251 12.348251 0 0 1 0-3.832216 18.309476 18.309476 0 0 1 0-4.683819V404.511669a22.567493 22.567493 0 0 0 0-5.535423 5.535423 5.535423 0 0 0 0-2.55481 28.102916 28.102916 0 0 0 0-5.961225z" p-id="22009"></path><path d="M1015.60247 232.061957a51.096211 51.096211 0 0 0-22.567493-19.161079 106.876241 106.876241 0 0 0-45.134986-8.090233H239.365867c0-14.47726-4.258018-28.102916-6.387026-42.580176l-3.832216-31.935131c0-10.219242-2.980612-18.735277-4.258017-24.270701s-2.980612-11.496647-5.109621-18.735277a59.186444 59.186444 0 0 0-30.231925-36.618951A66.425074 66.425074 0 0 0 156.334525 42.580176H52.013094a50.670409 50.670409 0 0 0-37.896356 14.051458 50.244607 50.244607 0 0 0-14.051458 37.470554 113.689069 113.689069 0 0 0 2.554811 23.844899 70.25729 70.25729 0 0 0 9.367638 24.2707 63.01866 63.01866 0 0 0 17.03207 19.586881 42.580176 42.580176 0 0 0 25.973908 8.516035h77.495919c16.606269 89.844171 31.50933 170.320703 44.709185 244.410208l16.606268 93.250585 14.903062 85.160351 11.496647 62.592859c0 10.219242 3.832216 20.864286 5.535423 31.50933s5.535423 23.419097 8.941837 34.489942a156.269245 156.269245 0 0 0 14.903062 34.489942 85.160351 85.160351 0 0 0 23.419096 25.548106 59.186444 59.186444 0 0 0 34.489942 9.79344H851.668794a42.580176 42.580176 0 0 0 38.74796-15.754665 72.8121 72.8121 0 0 0 10.219242-37.470555q0-42.580176-49.818806-44.709184H326.229426L311.752166 596.12246h543.748844a76.644316 76.644316 0 0 0 50.244607-17.032071 130.721139 130.721139 0 0 0 34.06414-60.463849c4.683819-13.625656 11.070846-32.360934 18.735278-56.205832l23.844898-72.386299c8.090233-24.2707 15.328863-46.412391 22.567493-66.850876s11.496647-33.638339 13.199855-40.025365a92.824783 92.824783 0 0 0 3.832215-25.548105 45.560788 45.560788 0 0 0-6.387026-25.548106z m-241.003794 127.740528v72.8121h-42.580176a97.934404 97.934404 0 0 1-5.109621 14.47726c0 3.832216-3.832216 7.664432-5.961225 11.496647l29.380322 29.380321-51.522013 51.522013-29.380321-28.528718-11.496648 5.535423-15.328863 5.535423v42.580176h-74.941109v-42.580176l-14.051458-2.980612a95.379594 95.379594 0 0 1-11.496648-5.535423l-29.380321 29.380321-51.947814-51.522013 29.380321-29.380321c0-3.832216-3.832216-7.664432-5.535423-11.496647a97.934404 97.934404 0 0 1-5.109621-14.47726h-42.580175v-76.644316h42.580175a143.06939 143.06939 0 0 1 11.922449-28.95452l-29.380321-29.380321L511.027388 249.51983l29.380321 29.380321a139.237174 139.237174 0 0 1 28.528718-11.922449v-42.580176h73.237902v42.580176a139.237174 139.237174 0 0 1 28.528718 11.922449l29.380321-29.380321 51.522013 51.522012-29.380321 29.380321a122.205104 122.205104 0 0 1 11.922449 28.95452z" p-id="22010"></path></svg>