<?xml version="1.0" standalone="no"?><!DOCTYPE svg PUBLIC "-//W3C//DTD SVG 1.1//EN" "http://www.w3.org/Graphics/SVG/1.1/DTD/svg11.dtd"><svg t="1643103759299" class="icon" viewBox="0 0 1097 1024" version="1.1" xmlns="http://www.w3.org/2000/svg" p-id="19465" xmlns:xlink="http://www.w3.org/1999/xlink" width="214.2578125" height="200"><defs><style type="text/css"></style></defs><path d="M1024 438.857143H542.72l18.285714-18.285714a73.142857 73.142857 0 1 0-103.862857-103.131429L365.714286 408.137143a146.285714 146.285714 0 0 0 0 204.8l91.428571 90.697143a73.142857 73.142857 0 0 0 51.931429 21.942857 73.142857 73.142857 0 0 0 51.931428-124.342857L545.645714 585.142857H1024a73.142857 73.142857 0 0 0 0-146.285714z" fill="" p-id="19466"></path><path d="M804.571429 653.897143a73.142857 73.142857 0 0 0-73.142858 73.142857V804.571429a73.142857 73.142857 0 0 1-73.142857 73.142857H219.428571a73.142857 73.142857 0 0 1-73.142857-73.142857V219.428571a73.142857 73.142857 0 0 1 73.142857-73.142857h438.857143a73.142857 73.142857 0 0 1 73.142857 73.142857v73.142858a73.142857 73.142857 0 0 0 146.285715 0V219.428571a219.428571 219.428571 0 0 0-219.428572-219.428571H219.428571a219.428571 219.428571 0 0 0-219.428571 219.428571v585.142858a219.428571 219.428571 0 0 0 219.428571 219.428571h438.857143a219.428571 219.428571 0 0 0 219.428572-219.428571V727.04a73.142857 73.142857 0 0 0-73.142857-73.142857z" fill="" p-id="19467"></path></svg>