<?xml version="1.0" standalone="no"?><!DOCTYPE svg PUBLIC "-//W3C//DTD SVG 1.1//EN" "http://www.w3.org/Graphics/SVG/1.1/DTD/svg11.dtd"><svg t="1644476488835" class="icon" viewBox="0 0 1024 1024" version="1.1" xmlns="http://www.w3.org/2000/svg" p-id="16859" xmlns:xlink="http://www.w3.org/1999/xlink" width="32" height="32"><defs><style type="text/css"></style></defs><path d="M991.357878 363.570483l-303.66811-46.915017L554.62172 22.37036a37.532014 37.532014 0 0 0-68.666525 0l-127.950046 293.432105L32.585532 363.570483a39.238014 39.238014 0 0 0-19.619007 67.813524l230.736583 226.898082-52.886019 319.875115a37.532014 37.532014 0 0 0 55.87152 40.517515s268.695097-150.554554 270.827598-155.672556l271.254098 155.672556a37.532014 37.532014 0 0 0 55.87152-40.517515l-52.886019-319.875115 220.927079-228.177582a39.664514 39.664514 0 0 0-21.325007-66.534024z" fill="#B3CDE6" p-id="16860"></path><path d="M703.896774 369.541485l24.310509 3.838501 104.919038 16.207006 132.641547 19.619007-190.219068 196.616571zM485.955195 825.470149l-245.237588 140.745051L288.059124 682.592598a1998.153221 1998.153221 0 0 1 325.419617-255.900093c-41.370515 162.923059-95.536034 348.877126-127.523546 398.777644zM276.11712 622.882576l-217.515079-213.250077 301.962109-42.650015h252.488091a2419.108873 2419.108873 0 0 0-336.082121 255.900092zM518.795707 62.461374l116.861042 254.194092H408.758667l110.03704-254.194092zM541.400215 821.205148a2985.501077 2985.501077 0 0 0 124.538045-413.278649l79.755529 261.871094 49.047518 298.550108z" fill="#3D5259" p-id="16861"></path></svg>