<?xml version="1.0" standalone="no"?><!DOCTYPE svg PUBLIC "-//W3C//DTD SVG 1.1//EN" "http://www.w3.org/Graphics/SVG/1.1/DTD/svg11.dtd"><svg t="1643111979129" class="icon" viewBox="0 0 1024 1024" version="1.1" xmlns="http://www.w3.org/2000/svg" p-id="41789" xmlns:xlink="http://www.w3.org/1999/xlink" width="200" height="200"><defs><style type="text/css"></style></defs><path d="M459.147 932.208H309.061c-124.134 0-225.128-101.004-225.128-225.137V294.335c0-124.134 100.994-225.128 225.128-225.128h412.735c124.134 0 225.128 100.994 225.128 225.128v150.086c0 20.721-16.8 37.521-37.521 37.521s-37.521-16.8-37.521-37.521V294.335c0-82.756-67.33-150.086-150.086-150.086H309.061c-82.756 0-150.086 67.33-150.086 150.086V707.07c0 82.765 67.33 150.095 150.086 150.095h150.086c20.721 0 37.521 16.8 37.521 37.521 0 20.722-16.8 37.522-37.521 37.522z" fill="#515151" p-id="41790"></path><path d="M656.134 357.918H299.681c-20.721 0-37.521-16.8-37.521-37.521s16.8-37.521 37.521-37.521h356.453c20.721 0 37.521 16.8 37.521 37.521s-16.8 37.521-37.521 37.521zM477.907 536.145H309.061c-20.721 0-37.521-16.8-37.521-37.521s16.8-37.521 37.521-37.521h168.846c20.721 0 37.521 16.8 37.521 37.521 0.001 20.72-16.8 37.521-37.521 37.521z" fill="#515151" p-id="41791"></path><path d="M721.796 911.359c-113.792 0-206.368-92.576-206.368-206.368s92.576-206.368 206.368-206.368 206.368 92.576 206.368 206.368-92.576 206.368-206.368 206.368z m0-337.693c-72.414 0-131.325 58.911-131.325 131.325s58.911 131.325 131.325 131.325 131.325-58.911 131.325-131.325-58.911-131.325-131.325-131.325z" fill="#515151" p-id="41792"></path><path d="M909.403 948.88c-9.6 0-19.21-3.664-26.529-10.993l-56.282-56.282c-14.657-14.657-14.657-38.401 0-53.058 14.638-14.657 38.419-14.657 53.058 0l56.282 56.282c14.657 14.657 14.657 38.401 0 53.058-7.319 7.329-16.929 10.993-26.529 10.993z" fill="#515151" p-id="41793"></path></svg>