<?xml version="1.0" standalone="no"?><!DOCTYPE svg PUBLIC "-//W3C//DTD SVG 1.1//EN" "http://www.w3.org/Graphics/SVG/1.1/DTD/svg11.dtd"><svg t="1643115877354" class="icon" viewBox="0 0 1024 1024" version="1.1" xmlns="http://www.w3.org/2000/svg" p-id="29290" xmlns:xlink="http://www.w3.org/1999/xlink" width="200" height="200"><defs><style type="text/css"></style></defs><path d="M755.375672 511.868742A243.503273 243.503273 0 1 1 511.872399 268.365469a216.447354 216.447354 0 0 1 36.562053 3.290585L606.933737 9.140513A511.868742 511.868742 0 1 0 1023.741142 511.868742z" p-id="29291"></path><path d="M508.947435 461.77873l17.184165-79.705276a144.054489 144.054489 0 0 0-28.152781-2.924964A132.720252 132.720252 0 1 0 631.064692 511.868742h-67.639798l107.126815-85.189583 70.930383 9.140513L952.810759 255.934371l-122.482878-15.356062 4.387447-123.579739-211.328667 179.8853L621.558558 372.932941z" p-id="29292"></path></svg>