<?xml version="1.0" standalone="no"?><!DOCTYPE svg PUBLIC "-//W3C//DTD SVG 1.1//EN" "http://www.w3.org/Graphics/SVG/1.1/DTD/svg11.dtd"><svg t="1643092711141" class="icon" viewBox="0 0 1024 1024" version="1.1" xmlns="http://www.w3.org/2000/svg" p-id="10722" xmlns:xlink="http://www.w3.org/1999/xlink" width="200" height="200"><defs><style type="text/css"></style></defs><path d="M849.54 65.32H213.77A62.8 62.8 0 0 0 151 128.05v758.66a62.8 62.8 0 0 0 62.73 62.73h635.81a62.8 62.8 0 0 0 62.73-62.73V128.05a62.8 62.8 0 0 0-62.73-62.73z m-160.61 41.82a20.94 20.94 0 0 1 20.92 20.91v10.2a20.94 20.94 0 0 1-20.92 20.91H374.38a20.93 20.93 0 0 1-20.91-20.91v-10.2a20.93 20.93 0 0 1 20.91-20.91z m181.52 779.57a20.93 20.93 0 0 1-20.91 20.91H213.77a20.93 20.93 0 0 1-20.91-20.91V128.05a20.93 20.93 0 0 1 20.91-20.91H315.5a62.14 62.14 0 0 0-3.85 20.91v10.2A62.8 62.8 0 0 0 374.38 201h314.55a62.8 62.8 0 0 0 62.74-62.74v-10.2a62.14 62.14 0 0 0-3.85-20.91h101.72a20.93 20.93 0 0 1 20.91 20.91z" p-id="10723"></path><path d="M390.84 489.5c-5.29-3-16.95-7.53-35.21-13.17-12.43-4-20.15-6.78-23-8.3-6.41-3.39-9.42-8.08-9.42-13.74 0-6.39 2.64-11.1 8.3-13.92 4.51-2.46 10.9-3.58 19.37-3.58 9.79 0 17.32 1.7 22.22 5.45 4.9 3.59 8.48 9.61 10.36 17.89h21.82c-1.3-14.68-6.77-25.61-16.17-32.57-8.86-6.58-21.28-9.78-37.1-9.78-14.48 0-26.34 3.2-35.76 9.78-10.17 6.78-15.07 16.19-15.07 28.05s5.09 20.9 15.44 27.11c4 2.26 14.31 6 30.87 11.3 14.87 4.51 23.55 7.52 26.18 8.84 8.27 4.15 12.6 9.79 12.6 16.95 0 5.65-3 10-8.65 13.37-5.64 3.19-13.56 4.89-23.35 4.89-11.1 0-19.19-2.08-24.46-5.83-5.84-4.34-9.41-11.68-10.92-21.84h-21.8c0.94 17.13 7.14 29.55 18.44 37.46 9.23 6.4 22.21 9.6 38.77 9.6 17.14 0 30.49-3.58 39.91-10.36 9.41-7 14.13-16.56 14.13-28.61 0-12.42-5.84-22.03-17.5-28.99zM465.33 420.41l-51.4 134.41h23.53l12.25-33.69H506l12.23 33.69h23.54l-51.4-134.41z m-9.05 82.65l21.28-58.93h0.76l21.07 58.93zM576.75 420.41h-21.86v134.41h94.51v-18.83h-72.65V420.41zM688.34 495.34h70.41v-18.83h-70.41v-37.28h74.92v-18.82h-96.95v134.41h100.16v-18.83h-78.13v-40.65z" p-id="10724"></path></svg>