<?xml version="1.0" standalone="no"?><!DOCTYPE svg PUBLIC "-//W3C//DTD SVG 1.1//EN" "http://www.w3.org/Graphics/SVG/1.1/DTD/svg11.dtd"><svg t="1643106369093" class="icon" viewBox="0 0 1024 1024" version="1.1" xmlns="http://www.w3.org/2000/svg" p-id="26615" xmlns:xlink="http://www.w3.org/1999/xlink" width="200" height="200"><defs><style type="text/css"></style></defs><path d="M792.20224 692.31104h100.07552a20.02432 20.02432 0 0 0 20.01408-20.03456V111.3088a20.02432 20.02432 0 0 0-20.0192-20.03456H491.99104a20.02432 20.02432 0 0 0-20.0192 20.03456v20.03456H732.16c33.16224 0 60.04224 26.91072 60.04224 60.1088v500.864z m-40.02816-500.86912A20.02432 20.02432 0 0 0 732.16 171.40736H431.94368V111.3088C431.94368 78.11072 458.82368 51.2 491.9808 51.2h400.29184C925.44 51.2 952.32 78.11072 952.32 111.3088v560.96768c0 33.19808-26.88 60.1088-60.04224 60.1088h-140.10368V191.4368zM732.16 772.4544a20.02432 20.02432 0 0 0 20.0192-20.03456V191.4368a20.02432 20.02432 0 0 0-20.0192-20.03456H331.86816a20.02432 20.02432 0 0 0-20.01408 20.03456v60.1088h260.18816c33.16224 0 60.04736 26.9056 60.04736 60.10368v250.74176a180.21376 180.21376 0 0 1 80.05632 149.94944 180.2752 180.2752 0 0 1-10.25536 60.1088H732.16z m0-641.11616c33.16224 0 60.04224 26.91072 60.04224 60.1088v560.9728c0 33.19296-26.88 60.10368-60.04224 60.10368h-96.1536l17.37728-30.06976a139.60192 139.60192 0 0 0 18.73408-70.10816 140.1856 140.1856 0 0 0-70.0672-121.49248l-9.99424-5.7856V311.6544a20.02432 20.02432 0 0 0-20.01408-20.03456H271.82592V191.4368c0-33.19296 26.88-60.10368 60.04224-60.10368H732.16zM641.97632 659.1488a20.04992 20.04992 0 0 1-1.9968 28.2624l-110.6944 96.16384a19.99872 19.99872 0 0 1-28.24192-2.00704l-49.42336-57.09312a20.04992 20.04992 0 0 1 2.01728-28.2624 19.99872 19.99872 0 0 1 28.2368 2.0224l36.3008 41.9328 95.56992-83.0208a19.99872 19.99872 0 0 1 28.23168 1.9968zM512 391.79264a20.02432 20.02432 0 0 1 20.0192 20.03456 20.02432 20.02432 0 0 1-20.0192 20.03456H191.7696a20.02432 20.02432 0 0 1-20.0192-20.03456 20.02432 20.02432 0 0 1 20.0192-20.03456H512z m20.0192 500.86912c-99.48672 0-180.13696-80.73216-180.13696-180.31616 0-99.584 80.65024-180.31104 180.13184-180.31104s180.13184 80.72704 180.13184 180.31104-80.65024 180.31616-180.13184 180.31616z m0-40.06912c77.37344 0 140.09856-62.79168 140.09856-140.24704 0-77.45024-62.72512-140.2368-140.10368-140.2368-77.37344 0-140.10368 62.78656-140.10368 140.2368 0 77.45536 62.73024 140.24704 140.10368 140.24704zM592.0512 311.6544a20.02432 20.02432 0 0 0-20.01408-20.03456h-440.32a20.02432 20.02432 0 0 0-20.01408 20.03456v601.0368a20.02432 20.02432 0 0 0 20.0192 20.03968h440.32a20.02432 20.02432 0 0 0 20.00896-20.03456v-30.30016a179.7632 179.7632 0 0 1-60.04224 10.2656c-99.4816 0-180.13184-80.73216-180.13184-180.31616 0-99.584 80.65024-180.31104 180.13184-180.31104 20.736 0 40.98048 3.51744 60.04224 10.2656V311.6544z m9.99424 279.19872a139.24352 139.24352 0 0 0-70.03648-18.74944c-77.37344 0-140.10368 62.79168-140.10368 140.24192 0 77.45536 62.73024 140.24704 140.10368 140.24704 24.96512 0 48.92672-6.528 70.0416-18.74944l30.03392-17.39264v96.24576c0 33.19296-26.88 60.10368-60.04736 60.10368h-440.32C98.56 972.8 71.68 945.88928 71.68 912.6912V311.6544c0-33.19808 26.88-60.1088 60.04224-60.1088h440.32c33.16224 0 60.04736 26.91072 60.04736 60.1088v296.59136l-30.03904-17.39264z" p-id="26616"></path></svg>