<?xml version="1.0" standalone="no"?><!DOCTYPE svg PUBLIC "-//W3C//DTD SVG 1.1//EN" "http://www.w3.org/Graphics/SVG/1.1/DTD/svg11.dtd"><svg t="1643113709632" class="icon" viewBox="0 0 1024 1024" version="1.1" xmlns="http://www.w3.org/2000/svg" p-id="53529" xmlns:xlink="http://www.w3.org/1999/xlink" width="200" height="200"><defs><style type="text/css"></style></defs><path d="M361.39008 444.68224l-47.20128 78.69952c-0.78848-0.08192-1.73056-0.08192-2.51392-0.08192-4.5568 0-8.87808 0.71168-12.95872 1.96608l-32.44032-32.44032a43.776 43.776 0 0 0 1.96608-12.95872c0-23.95648-19.4816-43.43296-43.43808-43.43296s-43.42784 19.4816-43.42784 43.43296c0 8.33024 2.3552 16.0256 6.36416 22.62528l-47.2832 78.6944c-0.78848-0.0768-1.73056-0.0768-2.51392-0.0768-23.95648 0-43.43296 19.47648-43.43296 43.43296s19.4816 43.43296 43.43296 43.43296 43.43296-19.4816 43.43296-43.43296a43.4176 43.4176 0 0 0-6.35904-22.62016l47.27808-78.78656a43.9296 43.9296 0 0 0 15.47264-1.87904l32.44032 32.44032a43.71968 43.71968 0 0 0-1.96608 12.9536c0 23.9616 19.4816 43.43296 43.43296 43.43296s43.35616-19.47648 43.35616-43.43296c0-8.32512-2.3552-16.02048-6.35904-22.61504 0 0 49.00352-78.62272 49.79712-78.62272l-37.07904-20.73088z" fill="#575757" p-id="53530"></path><path d="M363.71968 521.51296l47.2832-78.78656a43.91936 43.91936 0 0 0 15.46752-1.87904l131.66592 131.66592a43.94496 43.94496 0 0 0-1.96608 12.95872c0 23.95648 19.4816 43.43296 43.43296 43.43296 23.9616 0 43.36128-19.4816 43.36128-43.43296a43.3152 43.3152 0 0 0-6.36416-22.62016l47.2832-78.70464c0.78336 0.08192 1.72544 0.08192 2.51392 0.08192 23.95648 0 43.43296-19.4816 43.43296-43.43296s-19.4816-43.35616-43.43296-43.35616c-23.95648 0-43.43296 19.4816-43.43296 43.43296 0 8.32512 2.3552 16.0256 6.35904 22.62016l-47.2064 78.70464c-0.78336-0.08192-1.73056-0.08192-2.51392-0.08192-4.5568 0-8.87296 0.70656-12.9536 1.96096L454.9888 412.416a43.94496 43.94496 0 0 0 1.96096-12.95872c0-23.95648-19.4816-43.43296-43.43296-43.43296s-43.43296 19.4816-43.43296 43.43296a43.4176 43.4176 0 0 0 6.36416 22.62528s-49.01376 78.61248-49.80224 78.61248l37.07392 20.81792z" fill="#575757" p-id="53531"></path><path d="M780.20608 704.46592l139.57632 140.04224c12.8768 12.20096 12.8768 32.93184 0.44544 45.3632-12.42112 12.90752-33.14688 13.35296-45.60384 0.45056l-140.49792-140.26752c-27.17184 22.57408-57.5744 41.2416-90.74688 54.81984a350.37696 350.37696 0 0 1-135.67488 27.20256c-103.42912 0-202.0096-45.85984-269.27616-125.33248-33.86368-39.59808 17.51552-76.68224 56.20736-34.06848 54.8352 60.11904 131.77344 94.19776 213.0688 94.19776 39.38816 0 76.70272-7.82336 110.55104-21.87264a286.208 286.208 0 0 0 93.52192-62.18752l0.47104-0.47104c26.49088-26.72128 48.14848-58.48576 62.88384-93.97248 13.81888-33.39776 21.66272-70.9376 21.66272-110.336a290.7904 290.7904 0 0 0-21.21728-108.9536l-0.45056-1.3824a286.98112 286.98112 0 0 0-61.27104-92.37504l-1.6128-1.59744c-26.9568-26.49088-58.74688-48.13312-93.98784-62.44352-33.60768-14.49472-71.15264-22.08256-110.55104-22.08256-117.69344 0-219.03872 71.85408-263.74656 172.49792-5.5296 11.99104-16.58368 19.12832-29.72672 19.12832h-0.20992c-11.52 0-20.96128-5.53984-27.19232-14.73024-6.21056-9.46176-6.912-20.51584-2.29376-31.12448C240.27648 209.92 367.43168 124.22656 507.6992 124.22656c47.6672 0 93.52704 9.6768 135.68 27.17184 43.30496 17.75104 82.44736 44.24704 114.69824 76.47744l1.82272 1.63328c31.80544 32.4608 57.14432 70.7072 74.87488 113.1008l0.68608 1.82272c17.04448 41.48224 26.27072 86.13888 26.27072 133.59616a350.45888 350.45888 0 0 1-26.9568 134.97856 356.87936 356.87936 0 0 1-54.56896 91.45856z" fill="#575757" p-id="53532"></path></svg>