<?xml version="1.0" standalone="no"?><!DOCTYPE svg PUBLIC "-//W3C//DTD SVG 1.1//EN" "http://www.w3.org/Graphics/SVG/1.1/DTD/svg11.dtd"><svg t="1643112316947" class="icon" viewBox="0 0 1024 1024" version="1.1" xmlns="http://www.w3.org/2000/svg" p-id="44868" xmlns:xlink="http://www.w3.org/1999/xlink" width="200" height="200"><defs><style type="text/css"></style></defs><path d="M514.662409 873.819243q0 36.93563 17.98182 62.693372t43.253567 33.533664q-30.131698 1.943981-57.347425 2.915971t-49.571503 0.97199q-28.187718 0-65.609342-1.943981t-77.273226-5.345946-78.731211-7.775922-70.955289-9.233907-54.431455-9.719903-28.187718-9.719903q-10.691893-7.775922-16.037839-47.627523t4.373956-104.002958q3.887961-24.299756 16.037839-39.851601t29.645703-26.729732 38.87961-17.98182 43.739562-13.121868 43.253567-13.607864 38.393615-17.98182q20.411795-12.635873 31.589683-24.299756t15.551844-23.327766 4.373956-24.299756-0.97199-28.187718q-1.943981-22.355776-15.065849-35.477644t-29.645703-26.729732q-7.775922-6.803932-14.093859-18.95381t-11.177888-24.785752q-4.859951-14.579854-9.719903-31.103688-6.803932-1.943981-13.607864-6.803932-5.831942-4.859951-12.635873-13.607864t-11.663883-25.271747-3.401966-30.131698 5.345946-23.327766q3.887961-10.691893 11.663883-20.411795-0.97199-36.93563 3.887961-73.87126 4.859951-31.103688 14.579854-67.067328t30.131698-64.151357q18.467815-27.215727 41.309586-44.225557t46.655532-26.729732 47.627523-13.121868 46.169537-3.401966q28.187718 0 55.88944 6.317937t52.001479 17.00983 43.253567 24.299756 30.617693 27.215727q24.299756 31.103688 36.449635 68.525313t17.00983 71.441284q5.831942 38.87961 4.859951 78.731211 6.803932 4.859951 10.691893 12.635873 3.887961 6.803932 6.317937 17.495825t0.485995 26.243737q-2.915971 20.411795-9.233907 32.561674t-14.093859 18.95381q-8.747912 7.775922-18.467815 10.691893-4.859951 16.523834-9.719903 31.103688-4.859951 12.635873-10.691893 24.785752t-13.607864 18.95381q-9.719903 7.775922-17.495825 13.121868t-13.607864 11.663883-9.719903 14.093859-5.831942 20.411795q-1.943981 14.579854-1.457985 29.645703t7.775922 30.131698 22.355776 28.673713 42.281576 24.299756q5.831942 1.943981 9.719903 2.915971l0 36.93563 0 30.131698q-4.859951 0.97199-15.551844 0.97199l-65.123347 0q-89.423104 0-89.423104 70.955289l0 72.899269zM995.797587 815.499827q13.607864 10.691893 14.093859 29.645703t-10.205898 27.701722q-16.523834 12.635873-43.253567 29.645703t-56.375435 34.991649-57.347425 35.477644-45.197547 32.075679q-22.355776 18.467815-33.533664 18.95381t-11.177888-27.701722l0-47.627523q0-18.467815-8.747912-27.215727t-23.327766-8.747912l-115.666841 0q-14.579854 0-24.785752-7.289927t-10.205898-24.785752l0-48.599513q0-29.159708 9.233907-35.96364t33.533664-6.803932q11.663883 0 18.467815 0.485995t16.523834 0.485995 24.299756 0.485995 41.795581 0.485995q21.383786 0 30.131698-15.065849t8.747912-33.533664l0-46.655532q0-19.439805 8.747912-24.785752t25.271747 8.261917 44.711552 31.103688 58.805411 35.96364 59.291406 36.449635 46.169537 32.561674z" p-id="44869"></path></svg>