<?xml version="1.0" standalone="no"?><!DOCTYPE svg PUBLIC "-//W3C//DTD SVG 1.1//EN" "http://www.w3.org/Graphics/SVG/1.1/DTD/svg11.dtd"><svg t="1643103318093" class="icon" viewBox="0 0 1026 1024" version="1.1" xmlns="http://www.w3.org/2000/svg" p-id="17221" xmlns:xlink="http://www.w3.org/1999/xlink" width="200.390625" height="200"><defs><style type="text/css"></style></defs><path d="M514.56 1024a512 512 0 1 1 512-512 23.272727 23.272727 0 0 1-46.545455 0 465.454545 465.454545 0 1 0-465.454545 465.454545 23.272727 23.272727 0 1 1 0 46.545455z" fill="#707070" p-id="17222"></path><path d="M478.487273 660.014545a23.272727 23.272727 0 0 1-22.109091-16.98909l-81.454546-288.349091-76.8 166.981818A23.272727 23.272727 0 0 1 276.712727 535.272727H23.272727a23.272727 23.272727 0 0 1 0-46.545454h238.545455l97.047273-210.734546a23.272727 23.272727 0 0 1 23.272727-13.498182 23.272727 23.272727 0 0 1 20.596363 16.872728l77.381819 273.92 42.356363-134.865455a23.272727 23.272727 0 0 1 21.410909-16.290909A23.272727 23.272727 0 0 1 565.876364 418.909091L593.454545 488.727273h190.021819a23.272727 23.272727 0 0 1 0 46.545454H577.047273a23.272727 23.272727 0 0 1-21.643637-14.894545l-8.843636-23.272727L500.363636 643.607273a23.272727 23.272727 0 0 1-21.876363 16.407272zM710.749091 895.418182a143.709091 143.709091 0 1 1 140.567273-174.545455 143.709091 143.709091 0 0 1-108.916364 171.054546 145.105455 145.105455 0 0 1-31.650909 3.490909z m0-240.989091a97.163636 97.163636 0 1 0 94.836364 75.985454 96.814545 96.814545 0 0 0-94.487273-75.985454z" fill="#707070" p-id="17223"></path><path d="M767.488363 834.68453m22.098882-26.722455l0 0q22.098882-26.722455 48.821337-4.623572l167.329197 138.377566q26.722455 22.098882 4.623572 48.821337l0 0q-22.098882 26.722455-48.821337 4.623572l-167.329197-138.377566q-26.722455-22.098882-4.623572-48.821337Z" fill="#707070" p-id="17224"></path></svg>