<?xml version="1.0" standalone="no"?><!DOCTYPE svg PUBLIC "-//W3C//DTD SVG 1.1//EN" "http://www.w3.org/Graphics/SVG/1.1/DTD/svg11.dtd"><svg t="1642652657893" class="icon" viewBox="0 0 1024 1024" version="1.1" xmlns="http://www.w3.org/2000/svg" p-id="884" xmlns:xlink="http://www.w3.org/1999/xlink" width="200" height="200"><defs><style type="text/css"></style></defs><path d="M916.48 793.6c13.897143-19.748571 19.748571-42.422857 19.748571-68.754286 0-76.8-59.977143-136.777143-136.777142-136.777143-73.874286 0-136.777143 59.977143-136.777143 136.777143s59.977143 136.777143 136.777143 136.777143c25.6 0 51.2-8.777143 70.948571-19.748571l82.651429 82.651428 45.348571-48.274285-81.92-82.651429z m-117.028571-17.554286c-28.525714 0-51.2-22.674286-51.2-51.2s22.674286-51.2 51.2-51.2c28.525714 0 51.2 22.674286 51.2 51.2s-22.674286 51.2-51.2 51.2z" p-id="885"></path><path d="M517.12 893.074286V479.085714l307.2-131.657143v177.005715h81.92V267.702857c0-32.182857-19.017143-61.44-49.005714-74.605714L502.491429 35.108571a81.188571 81.188571 0 0 0-66.56 0L80.457143 192.365714c-29.257143 13.165714-48.274286 42.422857-48.274286 75.337143v488.594286c0 32.182857 19.017143 61.44 49.005714 74.605714l355.474286 157.988572c21.211429 9.508571 45.348571 9.508571 66.56 0l152.137143-67.291429v-89.965714l-138.24 61.44z m-81.92 5.851428l-321.097143-142.628571V344.502857l321.097143 137.508572v416.914285z m37.302857-489.325714L128 261.12 469.577143 109.714286l345.234286 152.868571L472.502857 409.6z" p-id="886"></path></svg>