<?xml version="1.0" standalone="no"?><!DOCTYPE svg PUBLIC "-//W3C//DTD SVG 1.1//EN" "http://www.w3.org/Graphics/SVG/1.1/DTD/svg11.dtd"><svg t="1643092736749" class="icon" viewBox="0 0 1235 1024" version="1.1" xmlns="http://www.w3.org/2000/svg" p-id="10881" xmlns:xlink="http://www.w3.org/1999/xlink" width="241.2109375" height="200"><defs><style type="text/css"></style></defs><path d="M1069.656051 737.019108l-19.566879-58.700637c6.522293 0 117.401274-45.656051 117.401274-150.012739 0-104.356688-110.878981-136.968153-117.401274-136.968152l19.566879-65.22293c58.700637 19.566879 163.057325 78.267516 163.057325 202.191082 0 143.490446-156.535032 202.191083-163.057325 208.713376zM163.057325 737.019108c-6.522293 0-163.057325-58.700637-163.057325-208.713376 0-123.923567 110.878981-182.624204 163.057325-202.191082l19.566879 65.22293c-6.522293 0-117.401274 32.611465-117.401274 136.968152s117.401274 150.012739 117.401274 150.012739l-19.566879 58.700637z" fill="#535353" p-id="10882"></path><path d="M704.407643 1024c-19.566879 0-32.611465-13.044586-32.611465-26.089172 0-19.566879 13.044586-32.611465 26.089172-39.133758 71.745223-6.522293 143.490446-32.611465 208.713376-71.745223 45.656051-32.611465 78.267516-84.789809 97.834395-143.490446V339.159236c0-6.522293-52.178344-273.936306-391.33758-273.936306s-384.815287 267.414013-384.815286 280.458599v384.815286c0 19.566879-13.044586 32.611465-32.611465 32.611465s-32.611465-13.044586-32.611465-32.611465v-391.337579c0-6.522293 52.178344-339.159236 450.038216-339.159236 391.33758 0 456.56051 332.636943 456.56051 332.636943v423.949044c-19.566879 71.745223-65.22293 136.968153-123.923567 182.624204-71.745223 45.656051-150.012739 71.745223-241.324841 84.789809 6.522293 0 6.522293 0 0 0z" fill="#535353" p-id="10883"></path></svg>