<?xml version="1.0" standalone="no"?><!DOCTYPE svg PUBLIC "-//W3C//DTD SVG 1.1//EN" "http://www.w3.org/Graphics/SVG/1.1/DTD/svg11.dtd"><svg t="1643111532690" class="icon" viewBox="0 0 1024 1024" version="1.1" xmlns="http://www.w3.org/2000/svg" p-id="39972" xmlns:xlink="http://www.w3.org/1999/xlink" width="200" height="200"><defs><style type="text/css"></style></defs><path d="M141.184 364.224l0 423.808 231.616 0L372.8 364.224 141.184 364.224zM323.2 500.992l-79.744 166.72-25.6 0 79.424-161.984L297.28 505.152l-89.6 0L207.68 484.608 323.2 484.608 323.2 500.992z" p-id="39973"></path><path d="M396.224 364.224l0 423.808 231.552 0L627.776 364.224 396.224 364.224zM578.304 500.992l-79.808 166.72L472.832 667.712 552.32 505.728 552.32 505.152l-89.6 0L462.72 484.608l115.584 0L578.304 500.992z" p-id="39974"></path><path d="M651.2 364.224l0 423.808 231.616 0L882.816 364.224 651.2 364.224zM833.216 500.992l-79.68 166.72-25.664 0 79.424-161.984L807.296 505.152l-89.536 0L717.76 484.608l115.456 0L833.216 500.992z" p-id="39975"></path><path d="M333.056 236.032c0.832 3.136 1.408 6.4 1.408 9.728 0 24-23.872 43.456-53.184 43.456-29.376 0-53.184-19.456-53.184-43.456 0-3.328 0.576-6.592 1.472-9.728L141.184 236.032l0 106.432 231.616 0L372.8 236.032 333.056 236.032z" p-id="39976"></path><path d="M553.92 236.032 570.368 247.232 543.872 286.272 470.08 236.032 396.224 236.032 396.224 342.464 627.776 342.464 627.776 236.032Z" p-id="39977"></path><path d="M830.656 236.032 830.656 261.632 698.432 261.632 698.432 236.032 651.2 236.032 651.2 342.464 882.816 342.464 882.816 236.032Z" p-id="39978"></path></svg>