<?xml version="1.0" standalone="no"?><!DOCTYPE svg PUBLIC "-//W3C//DTD SVG 1.1//EN" "http://www.w3.org/Graphics/SVG/1.1/DTD/svg11.dtd"><svg t="1644475940773" class="icon" viewBox="0 0 1157 1024" version="1.1" xmlns="http://www.w3.org/2000/svg" p-id="6974" xmlns:xlink="http://www.w3.org/1999/xlink" width="36.15625" height="32"><defs><style type="text/css"></style></defs><path d="M348.961837 313.655652L46.748271 313.566609h-0.133565C20.881141 313.566609-0.088598 334.803478 0.000445 360.537043l1.024 291.038609c0.089043 25.644522 20.880696 46.881391 46.391652 46.881391h0.178087c14.469565 0 27.38087-7.212522 35.84-17.630608l18.342957 283.247304c1.647304 25.288348 22.661565 44.29913 48.038956 44.299131h95.72174c25.377391 0 46.391652-19.277913 47.994434-44.610783l18.253913-283.737044c8.548174 11.041391 21.414957 18.432 35.929044 18.432h0.178087c25.555478 0 46.302609-21.682087 46.480695-47.059478l0.934957-290.548869c0.089043-25.466435-20.702609-47.193043-46.302609-47.193044M197.676967 25.154783a128.712348 128.712348 0 1 1 0 257.424695 128.712348 128.712348 0 0 1 0-257.424695M1031.435576 893.284174c0 6.856348-5.342609 13.490087-12.154435 13.490087H537.778532c-6.856348 0-13.356522-6.678261-13.356522-13.490087V262.500174h14.202435a121.677913 121.677913 0 0 0 121.232696-121.277217v-10.507131h359.379478c6.811826 0 12.154435 5.476174 12.154435 12.332522v750.235826h0.044522zM1020.928445 26.401391h-379.191652c-26.178783 0-51.422609 10.106435-70.344348 28.226783l-4.585739 4.318609c-38.822957 38.822957-77.467826 77.512348-116.602435 116.24626a101.732174 101.732174 0 0 0-30.096695 72.303305v645.209043a119.095652 119.095652 0 0 0 118.427826 118.472348h482.393043c64.957217 0 116.691478-53.559652 116.691478-118.472348V143.048348a116.068174 116.068174 0 0 0-116.646956-116.646957z" fill="#515151" p-id="6975"></path><path d="M912.785141 286.319304h-280.175304c-29.028174 0-52.535652 24.041739-52.535653 53.069913a52.98087 52.98087 0 0 0 52.535653 53.069913h280.175304c28.983652 0 52.535652-24.041739 52.535652-53.069913 0-28.983652-23.552-53.069913-52.535652-53.069913M912.785141 462.937043h-280.175304c-29.028174 0-52.535652 24.041739-52.535653 53.069914a52.98087 52.98087 0 0 0 52.535653 53.114434h280.175304c28.983652 0 52.535652-24.041739 52.535652-53.114434 0-28.983652-23.552-53.069913-52.535652-53.069914M912.785141 639.554783h-280.175304c-29.028174 0-52.535652 24.041739-52.535653 53.069913a52.98087 52.98087 0 0 0 52.535653 53.069913h280.175304c28.983652 0 52.535652-24.041739 52.535652-53.069913 0-28.983652-23.552-53.069913-52.535652-53.069913" fill="#515151" p-id="6976"></path></svg>