<?xml version="1.0" standalone="no"?><!DOCTYPE svg PUBLIC "-//W3C//DTD SVG 1.1//EN" "http://www.w3.org/Graphics/SVG/1.1/DTD/svg11.dtd"><svg t="1643113544838" class="icon" viewBox="0 0 1024 1024" version="1.1" xmlns="http://www.w3.org/2000/svg" p-id="51244" xmlns:xlink="http://www.w3.org/1999/xlink" width="200" height="200"><defs><style type="text/css"></style></defs><path d="M878.933333 85.333333H145.066667C106.666667 85.333333 85.333333 132.266667 85.333333 170.666667v524.8c0 42.666667 21.333333 72.533333 59.733334 72.533333H426.666667v85.333333H345.6c-8.533333 0-4.266667 17.066667-4.266667 25.6v51.2c0 12.8-4.266667 8.533333 4.266667 8.533334h328.533333c8.533333 0 4.266667 4.266667 4.266667-4.266667v-51.2c0-8.533333 4.266667-25.6-4.266667-25.6H597.333333v-85.333333h281.6c42.666667 0 59.733333-29.866667 59.733334-72.533334V170.666667c0-38.4-21.333333-85.333333-59.733334-85.333334z m-81.066666 354.133334C721.066667 537.6 622.933333 597.333333 512 597.333333s-209.066667-59.733333-285.866667-157.866666c-4.266667-8.533333-4.266667-21.333333 0-25.6C302.933333 315.733333 401.066667 251.733333 512 251.733333s209.066667 59.733333 285.866667 157.866667c4.266667 8.533333 4.266667 21.333333 0 29.866667z" fill="" p-id="51245"></path><path d="M503.466667 281.6c-76.8 4.266667-136.533333 64-140.8 140.8-4.266667 89.6 68.266667 166.4 157.866666 157.866667 72.533333-4.266667 136.533333-64 140.8-140.8 4.266667-89.6-68.266667-162.133333-157.866666-157.866667z m12.8 213.333333c-38.4 4.266667-68.266667-29.866667-68.266667-68.266666 0-29.866667 25.6-55.466667 59.733333-59.733334 38.4-4.266667 68.266667 29.866667 68.266667 68.266667-4.266667 29.866667-29.866667 55.466667-59.733333 59.733333z" fill="" p-id="51246"></path></svg>