<?xml version="1.0" standalone="no"?><!DOCTYPE svg PUBLIC "-//W3C//DTD SVG 1.1//EN" "http://www.w3.org/Graphics/SVG/1.1/DTD/svg11.dtd"><svg t="1643112118932" class="icon" viewBox="0 0 1024 1024" version="1.1" xmlns="http://www.w3.org/2000/svg" p-id="43235" xmlns:xlink="http://www.w3.org/1999/xlink" width="200" height="200"><defs><style type="text/css"></style></defs><path d="M989.696 663.552a184.32 184.32 0 0 0-40.96-93.5936A27.2384 27.2384 0 1 0 906.6496 604.16a128.3072 128.3072 0 0 1 28.9792 65.8432 138.1376 138.1376 0 0 1-33.6896 105.3696 27.2384 27.2384 0 0 0-6.0416 20.48l9.216 73.0112L829.44 837.7344a27.4432 27.4432 0 0 0-19.3536-0.6144 240.0256 240.0256 0 0 1-47.8208 11.264 222.72 222.72 0 0 1-134.0416-23.7568 27.2384 27.2384 0 1 0-26.2144 47.8208 277.4016 277.4016 0 0 0 167.1168 30.1056 289.6896 289.6896 0 0 0 48.5376-10.24l109.568 46.08a27.2384 27.2384 0 0 0 37.5808-28.5696l-13.7216-108.544a189.6448 189.6448 0 0 0 38.6048-137.728z" fill="" p-id="43236"></path><path d="M905.0112 447.7952c0-200.704-195.584-363.9296-436.1216-363.9296S32.8704 247.1936 32.8704 447.7952c0 85.504 36.1472 168.0384 102.4 233.5744v211.6608a27.2384 27.2384 0 0 0 40.96 23.6544l197.0176-114.0736a516.4032 516.4032 0 0 0 95.6416 9.216c240.5376-0.1024 436.1216-163.328 436.1216-364.032zM468.992 757.248a465.3056 465.3056 0 0 1-94.8224-10.24 27.4432 27.4432 0 0 0-19.1488 3.072L189.44 845.824V669.7984a27.2384 27.2384 0 0 0-8.6016-19.8656C120.5248 593.92 87.3472 522.24 87.3472 447.7952c0-170.5984 171.2128-309.4528 381.5424-309.4528s381.6448 138.8544 381.6448 309.4528S679.3216 757.248 468.992 757.248z" fill="" p-id="43237"></path><path d="M250.88 458.8544m-54.4768 0a54.4768 54.4768 0 1 0 108.9536 0 54.4768 54.4768 0 1 0-108.9536 0Z" fill="" p-id="43238"></path><path d="M468.992 458.8544m-54.4768 0a54.4768 54.4768 0 1 0 108.9536 0 54.4768 54.4768 0 1 0-108.9536 0Z" fill="" p-id="43239"></path><path d="M687.0016 458.8544m-54.4768 0a54.4768 54.4768 0 1 0 108.9536 0 54.4768 54.4768 0 1 0-108.9536 0Z" fill="" p-id="43240"></path></svg>