<?xml version="1.0" standalone="no"?><!DOCTYPE svg PUBLIC "-//W3C//DTD SVG 1.1//EN" "http://www.w3.org/Graphics/SVG/1.1/DTD/svg11.dtd"><svg t="1643106396034" class="icon" viewBox="0 0 1024 1024" version="1.1" xmlns="http://www.w3.org/2000/svg" p-id="26950" xmlns:xlink="http://www.w3.org/1999/xlink" width="200" height="200"><defs><style type="text/css"></style></defs><path d="M290.909091 500.363636A34.909091 34.909091 0 0 0 325.818182 535.272727h366.778182a37.236364 37.236364 0 0 0 26.298181-63.534545l-65.861818-65.861818a34.909091 34.909091 0 0 0-49.338182 49.338181l10.24 10.24H325.818182a34.909091 34.909091 0 0 0-34.909091 34.909091z m605.090909 151.272728a34.909091 34.909091 0 0 0 34.909091-34.909091V139.636364a46.545455 46.545455 0 0 0-46.545455-46.545455h-139.636363V46.545455a46.545455 46.545455 0 0 0-46.545455-46.545455H325.818182a46.545455 46.545455 0 0 0-46.545455 46.545455v46.545454H139.636364a46.545455 46.545455 0 0 0-46.545455 46.545455v837.818181a46.545455 46.545455 0 0 0 46.545455 46.545455h744.727272a46.545455 46.545455 0 0 0 46.545455-46.545455v-151.272727a34.909091 34.909091 0 0 0-69.818182 0V954.181818H162.909091V162.909091h116.363636v46.545454a46.545455 46.545455 0 0 0 46.545455 46.545455h372.363636a46.545455 46.545455 0 0 0 46.545455-46.545455V162.909091h116.363636v453.818182a34.909091 34.909091 0 0 0 34.909091 34.909091zM674.909091 186.181818H349.090909V69.818182h325.818182z m58.181818 477.090909A34.909091 34.909091 0 0 0 698.181818 628.363636H331.403636a37.236364 37.236364 0 0 0-26.298181 63.534546l65.861818 65.861818a34.909091 34.909091 0 1 0 49.338182-49.338182l-10.24-10.24H698.181818a34.909091 34.909091 0 0 0 34.909091-34.909091z" p-id="26951"></path></svg>