<?xml version="1.0" standalone="no"?><!DOCTYPE svg PUBLIC "-//W3C//DTD SVG 1.1//EN" "http://www.w3.org/Graphics/SVG/1.1/DTD/svg11.dtd"><svg t="1643114660476" class="icon" viewBox="0 0 1024 1024" version="1.1" xmlns="http://www.w3.org/2000/svg" p-id="4222" xmlns:xlink="http://www.w3.org/1999/xlink" width="200" height="200"><defs><style type="text/css"></style></defs><path d="M866.9952 752.9472l-58.8544-58.88a36.096 36.096 0 0 0-23.3216-10.5472l-19.968-20.0192a122.1888 122.1888 0 1 0-38.4 38.4l19.9936 20.0192c0.5376 8.832 4.3008 17.152 10.5472 23.3728l58.8288 58.9312a36.224 36.224 0 1 0 51.2-51.2l-0.0256-0.0768z m-144.8704-93.8752a86.0672 86.0672 0 1 1-121.6256-121.7792 86.0672 86.0672 0 0 1 121.6256 121.7792z m-167.7056-165.8112a148.5312 148.5312 0 0 1 209.9968 0 148.9152 148.9152 0 0 1 30.72 165.3504l0.3328 0.3328c11.1104 2.7136 21.248 8.448 29.312 16.512l5.8112 5.8112V274.688c0-6.4-119.2448-69.888-178.816-69.888-56.576 0.3072-111.9488 16.5888-159.6928 46.9248A300.9792 300.9792 0 0 0 332.416 204.8C272.8192 204.8 153.6 268.288 153.6 274.688v453.248c0 7.168 127.0272-31.232 178.816-31.232 51.7888 0 155.6992 50.56 159.488 50.56 0 0 51.2-27.0848 72.5248-34.8672a148.9152 148.9152 0 0 1-9.856-219.1872l-0.1536 0.0512z m-6.4-158.1056c36.224-24.8064 85.76-28.5184 112.0256-28.5184 26.2912 0 75.8272 3.712 112.0512 28.5184a19.584 19.584 0 0 1-22.0672 32.3328c-20.1728-13.7728-52.9408-21.888-89.984-21.888-37.0176 0-69.8368 7.8848-89.9328 21.6832a19.584 19.584 0 0 1-22.0672-32.3584l-0.0256 0.2304z m0 84.6848c36.224-24.7808 85.76-28.4928 112.0256-28.4928 26.2912 0 75.8272 3.712 112.0512 28.4928a19.6096 19.6096 0 0 1-22.0928 32.4352c-20.1472-13.7984-52.9152-21.6832-89.9584-21.6832-37.0176 0-69.8368 7.808-89.984 21.6832a19.584 19.584 0 0 1-22.0416-32.3584V419.84z m-106.6752 196.608a19.5328 19.5328 0 0 1-27.1872 5.12c-20.1728-13.7728-52.9408-21.6832-89.8816-21.6832-36.9664 0-69.9904 7.9104-90.0864 21.6832a19.584 19.584 0 0 1-22.0416-32.3328c36.224-24.8064 85.76-28.5184 112.0256-28.5184 26.2912 0 75.8272 3.712 112.0512 28.5184a19.584 19.584 0 0 1 5.0688 27.2128h0.0512z m0-84.6848a19.5328 19.5328 0 0 1-27.1872 5.12c-20.1728-13.7984-52.9408-21.6832-89.8816-21.6832-36.9664 0-69.9904 7.8848-90.0864 21.6832a19.5328 19.5328 0 1 1-22.0416-32.3072c36.224-24.7808 85.76-28.4928 112.0256-28.4928 26.2912 0 75.8272 3.712 112.0512 28.4928a19.584 19.584 0 0 1 5.0688 27.1872h0.0512z m0-84.7104a19.5328 19.5328 0 0 1-27.2128 5.2224c-20.1472-13.8752-52.9152-21.76-89.856-21.76-36.9664 0-69.9904 7.8848-90.0864 21.76a19.5328 19.5328 0 1 1-22.0416-32.3072c36.224-24.7808 85.76-28.4928 112.0256-28.4928 26.2912 0 75.8272 3.712 112.0512 28.4928 8.832 6.1184 11.1104 18.176 5.0688 27.0848h0.0512z m0-84.6848a19.5328 19.5328 0 0 1-27.1872 5.12c-20.1728-13.7728-52.9408-21.888-89.8816-21.888-36.9664 0-69.9904 8.1152-90.0864 21.8368a19.584 19.584 0 0 1-22.0416-32.3328c36.224-24.7808 85.76-28.4928 112.0256-28.4928 26.2912 0 75.8272 3.712 112.0512 28.4928a19.584 19.584 0 0 1 5.0688 27.2128l0.0512 0.0512z" fill="#515151" p-id="4223"></path></svg>