<?xml version="1.0" standalone="no"?><!DOCTYPE svg PUBLIC "-//W3C//DTD SVG 1.1//EN" "http://www.w3.org/Graphics/SVG/1.1/DTD/svg11.dtd"><svg t="1643114744240" class="icon" viewBox="0 0 1024 1024" version="1.1" xmlns="http://www.w3.org/2000/svg" p-id="5526" xmlns:xlink="http://www.w3.org/1999/xlink" width="200" height="200"><defs><style type="text/css"></style></defs><path d="M767.9 769.1v51.4c0 3.3-2.7 5.9-5.9 5.9H647c-3.3 0-5.9-2.7-5.9-5.9v-51.4c0-3.3 2.7-5.9 5.9-5.9h51.4c3.3 0 5.9-2.7 5.9-5.9V579c0-3.3-2.7-5.9-5.9-5.9H520.3c-3.3 0-5.9 2.7-5.9 5.9v178.2c0 3.3 2.7 5.9 5.9 5.9h51.3c3.3 0 5.9 2.7 5.9 5.9v51.4c0 3.3-2.7 5.9-5.9 5.9h-115c-3.3 0-5.9-2.7-5.9-5.9V769c0-3.3-2.7-5.9-5.9-5.9H266.5c-3.3 0-5.9 2.7-5.9 5.9v178.3c0 3.3 2.7 5.9 5.9 5.9h178.3c3.3 0 5.9-2.7 5.9-5.9v-51.4c0-3.3 2.7-5.9 5.9-5.9H762c3.3 0 5.9 2.7 5.9 5.9v51.4c0 3.3 2.7 5.9 5.9 5.9h178.4c3.3 0 5.9-2.7 5.9-5.9V769.1c0-3.3-2.7-5.9-5.9-5.9H773.9c-3.3 0-6 2.7-6 5.9zM381.3 889.8h-51.4c-3.3 0-5.9-2.7-5.9-5.9v-51.4c0-3.3 2.7-5.9 5.9-5.9h51.4c3.3 0 5.9 2.7 5.9 5.9v51.4c0.1 3.3-2.6 5.9-5.9 5.9zM635 699.7h-51.3c-3.3 0-5.9-2.7-5.9-5.9v-51.3c0-3.3 2.7-5.9 5.9-5.9H635c3.3 0 5.9 2.7 5.9 5.9v51.3c0 3.3-2.5 5.9-5.9 5.9z m253.9 190.1h-51.5c-3.3 0-5.9-2.7-5.9-5.9v-51.3c0-3.3 2.7-5.9 5.9-5.9h51.5c3.3 0 5.9 2.7 5.9 5.9v51.3c0.1 3.3-2.6 5.9-5.9 5.9z m0 0" p-id="5527"></path><path d="M139.4 128.9h432.2c3.3 0 5.9 2.7 5.9 5.9v178.4c0 3.3 2.7 5.9 5.9 5.9H762c3.3 0 5.9 2.7 5.9 5.9l0.1 178.7c0 3.3 2.7 5.9 5.9 5.9h51.5c3.3 0 5.9-2.7 5.9-5.9l-0.9-242.6c0-3.3-2.7-5.9-5.9-5.9h-56.4v0.6h-0.1v-57.5c0-3.3-2.7-5.9-5.9-5.9h-51.5c-3.3 0-5.9-2.7-5.9-5.9V135c0-3.3-2.7-5.9-5.9-5.9h-57.5V71.5c0-3.3-2.7-5.9-5.9-5.9H81.9C75.4 65.6 70 71 70 77.5v863.9c0 6.5 5.4 11.9 11.9 11.9h108.9c3.3 0 5.9-2.7 5.9-5.9v-51.5c0-3.3-2.7-5.9-5.9-5.9h-51.4c-3.3 0-5.9-2.7-5.9-5.9V134.9c0-3.3 2.6-6 5.9-6z" p-id="5528"></path><path d="M508.1 192.3H202.8c-3.3 0-5.9 2.7-5.9 5.9v51.5c0 3.3 2.7 5.9 5.9 5.9h305.3c3.3 0 5.9-2.7 5.9-5.9v-51.5c0.1-3.2-2.5-5.9-5.9-5.9zM202.8 382.8h305.3c3.3 0 5.9-2.7 5.9-5.9v-51.5c0-3.3-2.7-5.9-5.9-5.9H202.8c-3.3 0-5.9 2.7-5.9 5.9v51.5c0 3.2 2.7 5.9 5.9 5.9z m0 127h495.7c3.3 0 5.9-2.7 5.9-5.9v-51.5c0-3.3-2.7-5.9-5.9-5.9H202.8c-3.3 0-5.9 2.7-5.9 5.9v51.5c0 3.3 2.7 5.9 5.9 5.9z m242 63.3h-242c-3.3 0-5.9 2.7-5.9 5.9v51.5c0 3.3 2.7 5.9 5.9 5.9h241.8c3.3 0 5.9-2.7 5.9-5.9V579c0.2-3.2-2.4-5.9-5.7-5.9z m0 0" p-id="5529"></path></svg>