<?xml version="1.0" standalone="no"?><!DOCTYPE svg PUBLIC "-//W3C//DTD SVG 1.1//EN" "http://www.w3.org/Graphics/SVG/1.1/DTD/svg11.dtd"><svg t="1643103207728" class="icon" viewBox="0 0 1024 1024" version="1.1" xmlns="http://www.w3.org/2000/svg" p-id="16201" xmlns:xlink="http://www.w3.org/1999/xlink" width="200" height="200"><defs><style type="text/css"></style></defs><path d="M325.826187 465.456035 162.924869 465.456035c-38.496687 0-69.815436-31.318749-69.815436-69.815436L93.109433 232.739281c0-38.496687 31.318749-69.815436 69.815436-69.815436l162.902342 0c38.496687 0 69.815436 31.318749 69.815436 69.815436l0 162.902342C395.641623 434.137286 364.322874 465.456035 325.826187 465.456035zM162.924869 209.466786c-12.832229 0-23.272495 10.440266-23.272495 23.272495l0 162.902342c0 12.832229 10.440266 23.272495 23.272495 23.272495l162.902342 0c12.832229 0 23.272495-10.440266 23.272495-23.272495L349.099706 232.739281c0-12.832229-10.440266-23.272495-23.272495-23.272495L162.924869 209.466786z" p-id="16202"></path><path d="M325.826187 861.099706 162.924869 861.099706c-38.496687 0-69.815436-31.318749-69.815436-69.815436L93.109433 628.380904c0-38.496687 31.318749-69.815436 69.815436-69.815436l162.902342 0c38.496687 0 69.815436 31.318749 69.815436 69.815436l0 162.903366C395.641623 829.780957 364.322874 861.099706 325.826187 861.099706zM162.924869 605.110457c-12.832229 0-23.272495 10.439242-23.272495 23.271471l0 162.903366c0 12.831205 10.440266 23.271471 23.272495 23.271471l162.902342 0c12.832229 0 23.272495-10.439242 23.272495-23.271471L349.099706 628.380904c0-12.831205-10.440266-23.271471-23.272495-23.271471L162.924869 605.109433z" p-id="16203"></path><path d="M907.642647 279.283246l-418.890567 0c-12.852708 0-23.271471-10.418762-23.271471-23.271471s10.418762-23.271471 23.271471-23.271471l418.890567 0c12.852708 0 23.272495 10.418762 23.272495 23.271471S920.495355 279.283246 907.642647 279.283246z" p-id="16204"></path><path d="M907.642647 418.913094l-418.890567 0c-12.852708 0-23.271471-10.418762-23.271471-23.271471s10.418762-23.271471 23.271471-23.271471l418.890567 0c12.852708 0 23.272495 10.418762 23.272495 23.271471S920.495355 418.913094 907.642647 418.913094z" p-id="16205"></path><path d="M907.642647 651.654423l-418.890567 0c-12.852708 0-23.271471-10.419786-23.271471-23.272495s10.418762-23.272495 23.271471-23.272495l418.890567 0c12.852708 0 23.272495 10.419786 23.272495 23.272495S920.495355 651.654423 907.642647 651.654423z" p-id="16206"></path><path d="M907.642647 791.28427l-418.890567 0c-12.852708 0-23.271471-10.419786-23.271471-23.272495s10.418762-23.272495 23.271471-23.272495l418.890567 0c12.852708 0 23.272495 10.419786 23.272495 23.272495S920.495355 791.28427 907.642647 791.28427z" p-id="16207"></path></svg>