<?xml version="1.0" standalone="no"?><!DOCTYPE svg PUBLIC "-//W3C//DTD SVG 1.1//EN" "http://www.w3.org/Graphics/SVG/1.1/DTD/svg11.dtd"><svg t="1654574165072" class="icon" viewBox="0 0 1024 1024" version="1.1" xmlns="http://www.w3.org/2000/svg" p-id="5994" xmlns:xlink="http://www.w3.org/1999/xlink" width="200" height="200"><defs><style type="text/css">@font-face { font-family: feedback-iconfont; src: url("//at.alicdn.com/t/font_1031158_u69w8yhxdu.woff2?t=1630033759944") format("woff2"), url("//at.alicdn.com/t/font_1031158_u69w8yhxdu.woff?t=1630033759944") format("woff"), url("//at.alicdn.com/t/font_1031158_u69w8yhxdu.ttf?t=1630033759944") format("truetype"); }
</style></defs><path d="M716.8 307.2c9.8304 9.8304 23.3472 15.36 37.2736 15.36 13.9264 0 27.2384-5.5296 37.2736-15.36l46.4896-46.4896c5.12-4.9152 9.4208-10.6496 12.288-16.9984 2.8672-6.5536 4.5056-13.5168 4.5056-20.48 0.2048-7.168-1.2288-14.1312-3.8912-20.6848-2.6624-6.5536-6.5536-12.4928-11.6736-17.6128-4.9152-4.9152-11.0592-9.0112-17.6128-11.6736-6.5536-2.6624-13.7216-3.8912-20.6848-3.8912-7.168 0.2048-14.1312 1.6384-20.48 4.5056-6.5536 2.8672-12.288 7.168-16.9984 12.288L716.8 232.6528c-4.9152 4.9152-8.8064 10.6496-11.4688 16.9984-2.6624 6.3488-4.096 13.312-4.096 20.0704 0 6.9632 1.4336 13.7216 4.096 20.0704A50.57024 50.57024 0 0 0 716.8 307.2zM512 222.4128c13.9264 0 27.4432-5.5296 37.2736-15.36s15.36-23.3472 15.36-37.2736V103.8336c0-6.9632-1.4336-13.7216-4.096-20.0704-2.6624-6.3488-6.5536-12.288-11.4688-16.9984-4.9152-4.9152-10.6496-8.8064-17.2032-11.4688A49.9712 49.9712 0 0 0 512 51.2c-6.9632 0-13.7216 1.4336-20.0704 4.096-6.3488 2.6624-12.288 6.5536-17.2032 11.4688-4.9152 4.9152-8.8064 10.6496-11.4688 16.9984-2.6624 6.3488-4.096 13.312-4.096 20.0704v65.7408c0 13.9264 5.5296 27.4432 15.36 37.2736 10.0352 10.0352 23.552 15.5648 37.4784 15.5648zM232.6528 307.19488c4.9152 5.12 10.6496 9.4208 17.2032 12.288 6.5536 2.8672 13.5168 4.5056 20.48 4.5056 7.168 0.2048 14.1312-1.2288 20.6848-3.8912 6.5536-2.6624 12.4928-6.5536 17.6128-11.6736 4.9152-4.9152 9.0112-11.0592 11.6736-17.6128 2.6624-6.5536 3.8912-13.5168 3.8912-20.6848-0.2048-7.168-1.6384-14.1312-4.5056-20.48-2.8672-6.5536-7.168-12.288-12.288-16.9984l-46.4896-46.4896c-10.24-9.8304-23.552-15.36-37.4784-15.36-13.9264 0-27.4432 5.5296-37.2736 15.36s-15.36 23.3472-15.36 37.2736c0 13.9264 5.5296 27.4432 15.36 37.2736l46.4896 46.4896zM222.4128 512c0-13.9264-5.5296-27.4432-15.36-37.2736s-23.3472-15.36-37.2736-15.36H103.8336c-6.9632 0-13.7216 1.4336-20.0704 4.096-6.3488 2.6624-12.288 6.5536-16.9984 11.4688-4.9152 4.9152-8.8064 10.6496-11.4688 16.9984A51.712 51.712 0 0 0 51.2 512c0 29.0816 23.552 52.6336 52.6336 52.6336h65.7408c13.9264 0 27.4432-5.5296 37.2736-15.36 10.0352-9.8304 15.5648-23.3472 15.5648-37.2736zM269.7216 702.25408c-13.7216-0.2048-27.0336 5.12-36.864 14.5408l-46.4896 46.4896c-9.8304 9.8304-15.36 23.3472-15.36 37.2736 0 13.9264 5.5296 27.2384 15.36 37.2736 9.8304 9.8304 23.3472 15.36 37.2736 15.36 13.9264 0 27.4432-5.5296 37.2736-15.36l46.4896-46.4896c9.4208-10.0352 14.7456-23.1424 14.5408-37.0688-0.2048-13.7216-5.7344-27.0336-15.36-36.6592a54.0672 54.0672 0 0 0-36.864-15.36zM549.2736 817.152c-4.9152-4.9152-10.6496-8.8064-17.2032-11.4688-6.3488-2.6624-13.312-4.096-20.0704-4.096-13.9264 0-27.4432 5.5296-37.2736 15.36s-15.36 23.3472-15.36 37.2736v65.7408c0 13.9264 5.5296 27.4432 15.36 37.2736 9.8304 10.0352 23.3472 15.5648 37.2736 15.5648 13.9264 0 27.4432-5.5296 37.2736-15.36s15.36-23.3472 15.36-37.2736v-65.7408c0-6.9632-1.4336-13.7216-4.096-20.0704-2.4576-6.5536-6.3488-12.288-11.264-17.2032zM694.4768 436.42368c-9.8304-23.9616-24.576-45.6704-42.8032-64.1024-18.432-18.432-40.1408-32.9728-64.1024-42.8032a198.89152 198.89152 0 0 0-75.5712-14.9504c-52.4288 0-102.6048 20.8896-139.6736 57.7536a197.49376 197.49376 0 0 0-57.9584 139.6736c0 52.4288 20.8896 102.6048 57.9584 139.6736a197.49376 197.49376 0 0 0 139.6736 57.9584c26.0096 0 51.6096-5.12 75.5712-14.9504s45.6704-24.576 64.1024-42.8032c18.432-18.432 32.9728-40.1408 42.8032-64.1024 9.8304-23.9616 14.9504-49.5616 14.9504-75.5712 0-26.2144-5.12-51.8144-14.9504-75.776zM791.3472 716.8c-9.8304-9.8304-23.3472-15.36-37.2736-15.36-13.9264 0-27.4432 5.5296-37.2736 15.36s-15.36 23.3472-15.36 37.2736c0 13.9264 5.5296 27.4432 15.36 37.2736l46.4896 46.4896a51.968 51.968 0 0 0 37.0688 14.5408c13.7216-0.2048 27.0336-5.7344 36.6592-15.36 9.8304-9.8304 15.36-22.9376 15.36-36.6592 0.2048-13.7216-5.12-27.0336-14.5408-37.0688l-46.4896-46.4896zM957.44 474.7264c-9.8304-9.8304-23.3472-15.36-37.2736-15.36h-65.9456c-6.9632 0-13.7216 1.4336-20.0704 4.096-6.3488 2.6624-12.288 6.5536-16.9984 11.4688-4.9152 4.9152-8.8064 10.6496-11.4688 16.9984-2.6624 6.3488-4.096 13.312-4.096 20.0704 0 29.0816 23.552 52.6336 52.6336 52.6336h65.9456c13.9264 0 27.4432-5.5296 37.2736-15.36s15.36-23.3472 15.36-37.2736c0-13.9264-5.5296-27.4432-15.36-37.2736z" p-id="5995"></path></svg>