<?xml version="1.0" standalone="no"?><!DOCTYPE svg PUBLIC "-//W3C//DTD SVG 1.1//EN" "http://www.w3.org/Graphics/SVG/1.1/DTD/svg11.dtd"><svg t="1654574070898" class="icon" viewBox="0 0 1024 1024" version="1.1" xmlns="http://www.w3.org/2000/svg" p-id="4305" xmlns:xlink="http://www.w3.org/1999/xlink" width="200" height="200"><defs><style type="text/css">@font-face { font-family: feedback-iconfont; src: url("//at.alicdn.com/t/font_1031158_u69w8yhxdu.woff2?t=1630033759944") format("woff2"), url("//at.alicdn.com/t/font_1031158_u69w8yhxdu.woff?t=1630033759944") format("woff"), url("//at.alicdn.com/t/font_1031158_u69w8yhxdu.ttf?t=1630033759944") format("truetype"); }
</style></defs><path d="M730.815863 346.687783l-3.135998 14.015992a12.799992 12.799992 0 0 1-24.959984 0l-3.199998-14.015992A110.719931 110.719931 0 0 0 613.951936 262.399836l-14.591991-3.007998a12.799992 12.799992 0 0 1 0-25.087984l14.591991-3.007999a110.719931 110.719931 0 0 0 85.695947-84.287947l3.135998-14.015991a12.799992 12.799992 0 0 1 24.959984 0l3.135998 14.015991a110.719931 110.719931 0 0 0 85.759947 84.287947l14.527991 3.007999a12.799992 12.799992 0 0 1 0 25.087984l-14.591991 3.007998a110.719931 110.719931 0 0 0-85.695947 84.287947zM887.039766 160.1279l-1.471999 6.527996a3.839998 3.839998 0 0 1-7.487996 0l-1.471999-6.527996a36.927977 36.927977 0 0 0-28.607982-28.095983l-6.847996-1.407999a3.839998 3.839998 0 0 1 0-7.551995l6.847996-1.407999a36.927977 36.927977 0 0 0 28.607982-28.095982l1.471999-6.527996a3.839998 3.839998 0 0 1 7.487996 0l1.407999 6.527996c3.199998 14.207991 14.399991 25.151984 28.607982 28.159982l6.847995 1.343999a3.839998 3.839998 0 0 1 0 7.551995l-6.847995 1.407999a36.927977 36.927977 0 0 0-28.607982 28.159983zM970.303714 360.127775l-1.472 6.527996a3.839998 3.839998 0 0 1-7.487995 0l-1.471999-6.527996a36.927977 36.927977 0 0 0-28.543982-28.095983l-6.911996-1.407999a3.839998 3.839998 0 0 1 0-7.551995l6.911996-1.407999a36.927977 36.927977 0 0 0 28.543982-28.095982l1.471999-6.527996a3.839998 3.839998 0 0 1 7.487995 0l1.472 6.527996c3.199998 14.207991 14.335991 25.151984 28.543982 28.159982l6.911995 1.343999a3.839998 3.839998 0 0 1 0 7.551995l-6.911995 1.407999a36.927977 36.927977 0 0 0-28.543982 28.159983z" fill="#565674" p-id="4306"></path><path d="M343.808105 341.311787C343.808105 576.959639 536.319985 767.99952 773.567837 767.99952a430.079731 430.079731 0 0 0 218.367863-59.071963A515.967678 515.967678 0 0 1 515.775998 1023.99936C230.848176 1023.99936 0.00032 794.751503 0.00032 511.99968s230.911856-511.99968 515.711678-511.99968a424.959734 424.959734 0 0 0-171.903893 341.311787z" fill="#565674" p-id="4307"></path></svg>